<?xml version="1.0" standalone="no"?>
  <!DOCTYPE svg PUBLIC "-//W3C//DTD SVG 1.1//EN" "http://www.w3.org/Graphics/SVG/1.1/DTD/svg11.dtd" >
  <svg>
  <metadata>
  Created by font-carrier
  </metadata>
  <defs>
  <font id="RussianRailGPro-Medium" horiz-adv-x="1245" vert-adv-y="1245" >
    <font-face
      
      font-family="RussianRail G Pro Medium"
      
      font-weight="400"
      
      font-stretch="normal"
      
      units-per-em="1000"
      
      ascent="978"
      
      descent="-228"
      
    />
      <missing-glyph />

      

      
      <glyph glyph-name="uni21" unicode="&#x21;" d="M117 249L231 249L231 387L240 423C261 507 261 570 261 636C261 672 261 720 192 720L156 720C87 720 87 672 87 636C87 570 87 507 108 423L117 387ZM144 162C75 162 75 120 75 96L75 66C75 42 75 0 144 0L204 0C273 0 273 42 273 66L273 96C273 120 273 162 204 162Z"  horiz-adv-x="360" vert-adv-y="1000"  />

      
      <glyph glyph-name="uni22" unicode="&#x22;" d="M99 540L213 540C213 600 213 600 249 744L249 786C249 816 249 852 192 852L159 852C99 852 99 816 99 786ZM351 540L465 540C465 600 465 600 501 744L501 786C501 816 501 852 444 852L411 852C351 852 351 816 351 786Z"  horiz-adv-x="600" vert-adv-y="1000"  />

      
      <glyph glyph-name="uni23" unicode="&#x23;" d="M236 0L267 186L397 186L366 0L489 0L520 186L639 186L639 279L535 279L560 429L679 429L679 522L576 522L607 708L484 708L453 522L323 522L354 708L231 708L200 522L81 522L81 429L184 429L159 279L40 279L40 186L144 186L113 0ZM307 429L437 429L412 279L282 279Z"  horiz-adv-x="720" vert-adv-y="1000"  />

      
      <glyph glyph-name="uni24" unicode="&#x24;" d="M663 198C663 366 513 384 399 415L399 594L442 594L588 558L630 558L630 688C504 719 444 726 405 726L405 828L315 828L315 726C57 726 57 578 57 510C57 342 207 324 321 293L321 114L278 114L132 150L90 150L90 20C216-11 276-18 315-18L315-120L405-120L405-18C663-18 663 130 663 198ZM200 522C200 594 200 594 301 594L321 594L321 434L280 445C200 466 200 466 200 522ZM520 186C520 114 520 114 419 114L399 114L399 274L440 263C520 242 520 242 520 186Z"  horiz-adv-x="720" vert-adv-y="1000"  />

      
      <glyph glyph-name="uni25" unicode="&#x25;" d="M336 570C336 712 237 712 183 712L171 712C117 712 18 712 18 570L18 540C18 398 117 398 171 398L183 398C237 398 336 398 336 540ZM126 564C126 630 126 630 177 630C228 630 228 630 228 564L228 546C228 480 228 480 177 480C126 480 126 480 126 546ZM702 168C702 310 603 310 549 310L537 310C483 310 384 310 384 168L384 138C384-4 483-4 537-4L549-4C603-4 702-4 702 138ZM492 162C492 228 492 228 543 228C594 228 594 228 594 162L594 144C594 78 594 78 543 78C492 78 492 78 492 144ZM96 0L240 0L240 24C240 111 240 111 277 160L549 523C585 571 624 623 624 690L624 708L480 708L480 684C480 597 480 597 443 548L171 185C135 137 96 85 96 18Z"  horiz-adv-x="720" vert-adv-y="1000"  />

      
      <glyph glyph-name="uni26" unicode="&#x26;" d="M450 300L555 300L555 153L399 114L333 114C240 114 240 114 240 210C240 300 240 300 333 300L354 300L354 408L333 408C240 408 240 408 240 498C240 594 240 594 333 594L462 594L606 558L648 558L648 688C496 726 423 726 381 726C75 726 75 582 75 519C75 489 75 394 191 364L191 342C75 314 75 219 75 183C75 126 75-18 312-18C366-18 473-18 579 61L645-27L759 59C702 134 702 134 702 213L702 300L783 300L783 408L450 408Z"  horiz-adv-x="822" vert-adv-y="1000"  />

      
      <glyph glyph-name="uni27" unicode="&#x27;" d="M99 540L213 540C213 600 213 600 249 744L249 786C249 816 249 852 192 852L159 852C99 852 99 816 99 786Z"  horiz-adv-x="348" vert-adv-y="1000"  />

      
      <glyph glyph-name="uni28" unicode="&#x28;" d="M72 384L72 240C72 96 72-51 276-204L390-204L390-156C208-20 208-20 208 156L208 468C208 643 208 643 390 780L390 828L276 828C72 675 72 528 72 384Z"  horiz-adv-x="360" vert-adv-y="1000"  />

      
      <glyph glyph-name="uni29" unicode="&#x29;" d="M90-204C294-51 294 96 294 240L294 384C294 528 294 675 90 828L-24 828L-24 780C158 643 158 643 158 468L158 156C158-20 158-20-24-156L-24-204Z"  horiz-adv-x="360" vert-adv-y="1000"  />

      
      <glyph glyph-name="uni2a" unicode="&#x2a;" d="M288 606C288 548 312 516 348 468L447 468L447 500L367 606L495 606L495 690L367 690L447 796L447 828L348 828C312 780 288 748 288 690L252 690C252 748 228 780 192 828L93 828L93 796L172 690L45 690L45 606L172 606L93 500L93 468L192 468C228 516 252 548 252 606Z"  horiz-adv-x="540" vert-adv-y="1000"  />

      
      <glyph glyph-name="uni2b" unicode="&#x2b;" d="M324 54L396 54L396 252L606 252L606 318L396 318L396 516L324 516L324 318L114 318L114 252L324 252Z"  horiz-adv-x="720" vert-adv-y="1000"  />

      
      <glyph glyph-name="uni2c" unicode="&#x2c;" d="M121-152L121-168L189-168C234-108 285-32 285 42L285 60C285 84 285 162 183 162L144 162C75 162 75 120 75 96L75 66C75 42 75 0 144 0L153 0L153-24Z"  horiz-adv-x="360" vert-adv-y="1000"  />

      
      <glyph glyph-name="uni2d" unicode="&#x2d;" d="M30 339L30 234L330 234L330 339Z"  horiz-adv-x="360" vert-adv-y="1000"  />

      
      <glyph glyph-name="uni2e" unicode="&#x2e;" d="M144 162C75 162 75 120 75 96L75 66C75 42 75 0 144 0L204 0C273 0 273 42 273 66L273 96C273 120 273 162 204 162Z"  horiz-adv-x="360" vert-adv-y="1000"  />

      
      <glyph glyph-name="uni2f" unicode="&#x2f;" d="M624 708L480 708L480 684C480 612 480 612 429 544L171 200C135 152 96 100 96 24L96 0L240 0L240 24C240 96 240 96 291 164L549 508C585 556 624 608 624 684Z"  horiz-adv-x="720" vert-adv-y="1000"  />

      
      <glyph glyph-name="uni30" unicode="&#x30;" d="M342 724C222 724 57 720 57 384L57 324C57-18 222-18 342-18L378-18C498-18 663-18 663 324L663 384C663 720 498 724 378 724ZM204 366C204 597 204 597 360 597C516 597 516 597 516 366L516 342C516 111 516 111 360 111C208 111 204 111 204 304Z"  horiz-adv-x="720" vert-adv-y="1000"  />

      
      <glyph glyph-name="uni31" unicode="&#x31;" d="M96 0L624 0L624 126L450 126L450 708L348 708L96 645L96 567L315 567L315 126L96 126Z"  horiz-adv-x="720" vert-adv-y="1000"  />

      
      <glyph glyph-name="uni32" unicode="&#x32;" d="M358 726C80 726 80 564 80 512L80 505L204 474C237 603 237 603 358 603C496 603 496 603 496 510C496 411 496 411 370 380L238 347C85 308 85 222 85 132L85 0L628 0L628 126L205 126L205 150C205 211 205 210 262 225L454 273C643 320 643 420 643 509C643 600 643 726 358 726Z"  horiz-adv-x="720" vert-adv-y="1000"  />

      
      <glyph glyph-name="uni33" unicode="&#x33;" d="M390 290C492 290 492 290 492 204C492 111 492 111 372 111L261 111L117 147L81 147L81 20C233-18 318-18 366-18C639-18 639 138 639 192L639 216C639 384 504 384 454 384L431 384L431 409L479 445C615 547 615 547 615 609L615 708L81 708L81 503L198 503L198 588L464 588L464 560L210 370L291 262C329 290 348 290 390 290Z"  horiz-adv-x="720" vert-adv-y="1000"  />

      
      <glyph glyph-name="uni34" unicode="&#x34;" d="M435 132L435 0L570 0L570 132L666 132L666 249L570 249L570 498L531 498L435 474L435 249L192 249L192 274L336 466C414 570 447 614 447 684L447 708L297 708L297 696C297 615 297 615 144 411L54 291L54 132Z"  horiz-adv-x="720" vert-adv-y="1000"  />

      
      <glyph glyph-name="uni35" unicode="&#x35;" d="M642 240C642 321 642 462 420 462C380 462 333 462 213 432L213 582L606 582L606 708L96 708L96 306L227 274C247 348 247 348 363 348C495 348 495 348 495 228C495 111 495 111 357 111L270 111L126 147L84 147L84 20C236-18 309-18 369-18C642-18 642 126 642 216Z"  horiz-adv-x="720" vert-adv-y="1000"  />

      
      <glyph glyph-name="uni36" unicode="&#x36;" d="M519 720L373 720L228 612C66 491 66 372 66 252C66 132 66-18 339-18L387-18C660-18 660 120 660 216L660 240C660 324 660 462 430 462L411 462C297 462 253 429 225 408L207 432L519 666ZM387 342C513 342 513 342 513 225C513 105 513 105 363 105C213 105 213 105 213 225C213 336 213 342 387 342Z"  horiz-adv-x="720" vert-adv-y="1000"  />

      
      <glyph glyph-name="uni37" unicode="&#x37;" d="M78 708L78 503L195 503L195 588L498 588L498 543L318 303C249 211 249 156 249 48L249 0L399 0L399 48C399 196 399 196 453 268L585 444C636 512 636 512 636 624L636 708Z"  horiz-adv-x="720" vert-adv-y="1000"  />

      
      <glyph glyph-name="uni38" unicode="&#x38;" d="M527 386C651 417 651 492 651 543C651 597 651 724 360 724C69 724 69 600 69 510C69 474 69 378 193 347L193 322C69 291 69 216 69 165C69 111 69-16 360-16C651-16 651 108 651 198C651 234 651 330 527 361ZM270 443C210 458 210 458 210 525C210 603 210 603 360 603C510 603 510 603 510 528C510 479 510 479 462 443L414 407ZM450 265C510 250 510 250 510 183C510 105 510 105 360 105C210 105 210 105 210 180C210 229 210 229 258 265L306 301Z"  horiz-adv-x="720" vert-adv-y="1000"  />

      
      <glyph glyph-name="uni39" unicode="&#x39;" d="M375 726L339 726C66 726 66 576 66 492L66 468C66 378 66 246 309 246L327 246C447 246 485 274 501 286C501 111 501 111 327 111L276 111L132 147L90 147L90 20C242-18 312-18 345-18C648-18 648 144 648 348L648 408C648 582 648 726 375 726ZM333 366C207 366 207 366 207 483C207 603 207 603 357 603C501 603 501 603 501 483C501 366 501 366 333 366Z"  horiz-adv-x="720" vert-adv-y="1000"  />

      
      <glyph glyph-name="uni3a" unicode="&#x3a;" d="M144 162C75 162 75 120 75 96L75 66C75 42 75 0 144 0L204 0C273 0 273 42 273 66L273 96C273 120 273 162 204 162ZM144 504C75 504 75 462 75 438L75 408C75 384 75 342 144 342L204 342C273 342 273 384 273 408L273 438C273 462 273 504 204 504Z"  horiz-adv-x="360" vert-adv-y="1000"  />

      
      <glyph glyph-name="uni3b" unicode="&#x3b;" d="M144 504C75 504 75 462 75 438L75 408C75 384 75 342 144 342L204 342C273 342 273 384 273 408L273 438C273 462 273 504 204 504ZM121-152L121-168L189-168C234-108 285-32 285 42L285 60C285 84 285 162 183 162L144 162C75 162 75 120 75 96L75 66C75 42 75 0 144 0L153 0L153-24Z"  horiz-adv-x="360" vert-adv-y="1000"  />

      
      <glyph glyph-name="uni3c" unicode="&#x3c;" d="M508 563L168 309L168 261L508 7L548 59L246 285L548 511Z"  horiz-adv-x="720" vert-adv-y="1000"  />

      
      <glyph glyph-name="uni3d" unicode="&#x3d;" d="M90 252L90 186L630 186L630 252ZM90 384L90 318L630 318L630 384Z"  horiz-adv-x="720" vert-adv-y="1000"  />

      
      <glyph glyph-name="uni3e" unicode="&#x3e;" d="M212 7L552 261L552 309L212 563L172 511L474 285L172 59Z"  horiz-adv-x="720" vert-adv-y="1000"  />

      
      <glyph glyph-name="uni3f" unicode="&#x3f;" d="M243 162C174 162 174 120 174 96L174 66C174 42 174 0 243 0L303 0C372 0 372 42 372 66L372 96C372 120 372 162 303 162ZM309 726C264 726 200 726 48 688L48 567L90 567L234 603L321 603C396 603 401 603 401 534C401 491 401 488 271 393L213 351L213 249L330 249L330 286L353 303C516 424 552 469 552 552C552 594 551 726 309 726Z"  horiz-adv-x="621" vert-adv-y="1000"  />

      
      <glyph glyph-name="uni40" unicode="&#x40;" d="M234 314C234 606 234 606 597 606C960 606 960 606 960 348L960 240C960 108 960 108 867 108C808 108 789 108 789 144C789 162 794 189 800 228L846 504L805 504L757 468C721 516 645 516 591 516C382 516 359 377 343 282L338 252C335 235 331 210 331 183C331 116 357 36 496 36C591 36 639 72 687 108L714 72C759 12 828 12 873 12C1101 12 1101 147 1101 300L1101 330C1101 564 1101 714 729 714L465 714C93 714 93 564 93 330L93 174C93-24 93-180 411-180C471-180 527-178 699-138L699-24L654-24L480-66L459-66C234-66 234-66 234 192ZM477 270C501 414 501 414 609 414C643 414 643 414 703 399L670 201C586 138 586 138 528 138C481 138 464 138 464 173C464 193 469 223 477 270Z"  horiz-adv-x="1194" vert-adv-y="1000"  />

      
      <glyph glyph-name="uni41" unicode="&#x41;" d="M285 708L21 48L21 0L160 0L226 165L596 165L662 0L801 0L801 48L537 708ZM361 576L461 576C461 510 485 450 551 285L271 285C337 450 361 510 361 576Z"  horiz-adv-x="822" vert-adv-y="1000"  />

      
      <glyph glyph-name="uni42" unicode="&#x42;" d="M483 291C570 291 570 291 570 208C570 126 570 126 483 126L249 126L249 291ZM483 582C570 582 570 582 570 499C570 417 570 417 483 417L249 417L249 582ZM628 365C732 391 732 492 732 519C732 708 573 708 414 708L105 708L105 0L414 0C573 0 732 0 732 189C732 216 732 317 628 343Z"  horiz-adv-x="810" vert-adv-y="1000"  />

      
      <glyph glyph-name="uni43" unicode="&#x43;" d="M726 488C726 549 726 726 432 726L390 726C75 726 75 504 75 384L75 324C75 186 75-18 411-18C471-18 553-18 705 20L705 155L663 155L519 119L453 119C231 119 231 119 231 336L231 372C231 589 231 589 411 589C550 589 550 589 584 453Z"  horiz-adv-x="783" vert-adv-y="1000"  />

      
      <glyph glyph-name="uni44" unicode="&#x44;" d="M249 582L387 582C609 582 609 582 609 354C609 126 609 126 387 126L249 126ZM105 0L279 0C609 0 765 0 765 354C765 708 609 708 279 708L105 708Z"  horiz-adv-x="840" vert-adv-y="1000"  />

      
      <glyph glyph-name="uni45" unicode="&#x45;" d="M105 0L663 0L663 126L249 126L249 291L594 291L594 417L249 417L249 582L663 582L663 708L105 708Z"  horiz-adv-x="732" vert-adv-y="1000"  />

      
      <glyph glyph-name="uni46" unicode="&#x46;" d="M105 0L249 0L249 261L594 261L594 387L249 387L249 582L663 582L663 708L105 708Z"  horiz-adv-x="708" vert-adv-y="1000"  />

      
      <glyph glyph-name="uni47" unicode="&#x47;" d="M441 411L441 297L582 297L582 156L434 119L411 119C231 119 231 119 231 336L231 372C231 589 231 589 441 589L519 589L663 553L705 553L705 688C551 726 471 726 411 726C75 726 75 504 75 384L75 324C75 204 75-18 345-18C396-18 490-18 626 84L689 0L732 0L732 411Z"  horiz-adv-x="825" vert-adv-y="1000"  />

      
      <glyph glyph-name="uni48" unicode="&#x48;" d="M597 417L249 417L249 708L105 708L105 0L249 0L249 291L597 291L597 0L741 0L741 708L597 708Z"  horiz-adv-x="846" vert-adv-y="1000"  />

      
      <glyph glyph-name="uni49" unicode="&#x49;" d="M249 0L249 708L105 708L105 0Z"  horiz-adv-x="354" vert-adv-y="1000"  />

      
      <glyph glyph-name="uni4a" unicode="&#x4a;" d="M281-18C536-18 537 150 537 252L537 708L393 708L393 228C393 116 393 116 281 116C198 116 198 116 175 208L27 171C27 138 27-18 281-18Z"  horiz-adv-x="636" vert-adv-y="1000"  />

      
      <glyph glyph-name="uni4b" unicode="&#x4b;" d="M756 660L756 708L600 708C483 552 426 476 426 417L249 417L249 708L105 708L105 0L249 0L249 291L426 291C426 232 483 156 600 0L756 0L756 48L525 354Z"  horiz-adv-x="801" vert-adv-y="1000"  />

      
      <glyph glyph-name="uni4c" unicode="&#x4c;" d="M615 0L615 126L249 126L249 708L105 708L105 0Z"  horiz-adv-x="636" vert-adv-y="1000"  />

      
      <glyph glyph-name="uni4d" unicode="&#x4d;" d="M105 708L105 0L246 0L246 576L291 576C291 496 291 496 477 0L633 0C819 496 819 496 819 576L864 576L864 0L1005 0L1005 708L751 708C576 240 576 240 576 162L534 162C534 240 534 240 358 708Z"  horiz-adv-x="1110" vert-adv-y="1000"  />

      
      <glyph glyph-name="uni4e" unicode="&#x4e;" d="M586 192C586 262 544 325 291 708L105 708L105 0L241 0L241 516L284 516C284 442 326 379 579 0L765 0L765 708L629 708L629 192Z"  horiz-adv-x="870" vert-adv-y="1000"  />

      
      <glyph glyph-name="uni4f" unicode="&#x4f;" d="M441 588C650 588 651 588 651 366L651 342C651 121 651 120 441 120C232 120 231 120 231 342L231 366C231 587 231 588 441 588ZM405 726C75 726 75 504 75 384L75 324C75 204 75-18 405-18L477-18C807-18 807 204 807 324L807 384C807 504 807 726 477 726Z"  horiz-adv-x="882" vert-adv-y="1000"  />

      
      <glyph glyph-name="uni50" unicode="&#x50;" d="M249 582L444 582C579 582 579 582 579 451C579 321 579 321 444 321L249 321ZM105 0L249 0L249 195L372 195C579 195 732 195 732 451C732 708 579 708 372 708L105 708Z"  horiz-adv-x="789" vert-adv-y="1000"  />

      
      <glyph glyph-name="uni51" unicode="&#x51;" d="M613-132L514 0C807 0 807 198 807 324L807 384C807 504 807 726 477 726L405 726C75 726 75 504 75 384L75 324C75 197 75 0 373 0C373-75 421-134 457-180L613-180ZM231 366C231 587 231 588 441 588C650 588 651 588 651 366L651 342C651 124 651 123 441 123C232 123 231 123 231 342Z"  horiz-adv-x="882" vert-adv-y="1000"  />

      
      <glyph glyph-name="uni52" unicode="&#x52;" d="M249 582L454 582C577 582 577 582 577 463C577 345 577 345 454 345L249 345ZM591 268C691 343 733 374 733 486C733 708 576 708 370 708L105 708L105 0L249 0L249 219L478 219C478 163 528 96 600 0L756 0L756 48Z"  horiz-adv-x="816" vert-adv-y="1000"  />

      
      <glyph glyph-name="uni53" unicode="&#x53;" d="M288 451C222 467 222 467 222 520C222 589 222 589 312 589L471 589L615 553L657 553L657 688C505 726 429 726 372 726C66 726 66 579 66 507C66 357 180 329 300 299L468 257C534 240 534 240 534 188C534 119 534 119 444 119L291 119L147 155L105 155L105 20C257-18 327-18 384-18C690-18 690 129 690 201C690 350 576 379 456 409Z"  horiz-adv-x="756" vert-adv-y="1000"  />

      
      <glyph glyph-name="uni54" unicode="&#x54;" d="M21 708L21 582L285 582L285 0L429 0L429 582L693 582L693 708Z"  horiz-adv-x="714" vert-adv-y="1000"  />

      
      <glyph glyph-name="uni55" unicode="&#x55;" d="M771 708L627 708L627 315C627 123 627 123 435 123C243 123 243 123 243 315L243 708L99 708L99 300C99 180 99-18 405-18L465-18C771-18 771 180 771 300Z"  horiz-adv-x="870" vert-adv-y="1000"  />

      
      <glyph glyph-name="uni56" unicode="&#x56;" d="M523 0C750 567 750 567 750 708L606 708L606 600C447 202 447 202 447 132L345 132C345 202 345 202 186 600L186 708L42 708C42 567 42 567 269 0Z"  horiz-adv-x="792" vert-adv-y="1000"  />

      
      <glyph glyph-name="uni57" unicode="&#x57;" d="M495 600C358 190 358 190 358 132L309 132C309 204 309 204 210 600L210 708L60 708C60 570 60 570 202 0L440 0C560 360 560 360 560 432L610 432C610 360 610 360 730 0L967 0C1110 570 1110 570 1110 708L966 708L966 600C867 204 867 204 867 132L817 132C817 190 817 190 681 600Z"  horiz-adv-x="1170" vert-adv-y="1000"  />

      
      <glyph glyph-name="uni58" unicode="&#x58;" d="M45 48L45 0L201 0C318 156 375 232 375 291L453 291C453 232 510 156 627 0L783 0L783 48L552 354L783 660L783 708L627 708C510 552 453 476 453 417L375 417C375 476 318 552 201 708L45 708L45 660L275 354Z"  horiz-adv-x="828" vert-adv-y="1000"  />

      
      <glyph glyph-name="uni59" unicode="&#x59;" d="M753 660L753 708L597 708C480 552 423 476 423 417L345 417C345 476 288 552 171 708L15 708L15 660L312 264L312 0L456 0L456 264Z"  horiz-adv-x="768" vert-adv-y="1000"  />

      
      <glyph glyph-name="uni5a" unicode="&#x5a;" d="M678 708L72 708L72 570L114 570C246 570 379 570 495 594L504 558L72 177L72 0L678 0L678 138L636 138C504 138 371 138 255 114L246 150L678 531Z"  horiz-adv-x="750" vert-adv-y="1000"  />

      
      <glyph glyph-name="uni5b" unicode="&#x5b;" d="M324-123L198-123L198 747L324 747L324 828L69 828L69-204L324-204Z"  horiz-adv-x="360" vert-adv-y="1000"  />

      
      <glyph glyph-name="uni5c" unicode="&#x5c;" d="M96 684C96 608 135 556 171 508L429 164C480 96 480 96 480 24L480 0L624 0L624 24C624 100 585 152 549 200L291 544C240 612 240 612 240 684L240 708L96 708Z"  horiz-adv-x="720" vert-adv-y="1000"  />

      
      <glyph glyph-name="uni5d" unicode="&#x5d;" d="M36 747L162 747L162-123L36-123L36-204L291-204L291 828L36 828Z"  horiz-adv-x="360" vert-adv-y="1000"  />

      
      <glyph glyph-name="uni5e" unicode="&#x5e;" d="M90 374L90 336L146 336L360 626L574 336L630 336L630 374L384 708L336 708Z"  horiz-adv-x="720" vert-adv-y="1000"  />

      
      <glyph glyph-name="uni5f" unicode="&#x5f;" d="M-12-102L-12-168L732-168L732-102Z"  horiz-adv-x="720" vert-adv-y="1000"  />

      
      <glyph glyph-name="uni60" unicode="&#x60;" d="M363 603L167 750L27 750L27 711C155 615 215 570 303 570L363 570Z"  horiz-adv-x="393" vert-adv-y="1000"  />

      
      <glyph glyph-name="uni61" unicode="&#x61;" d="M452 64L511-14L609 59C573 107 573 107 573 199L573 288C573 378 573 516 324 516C285 516 198 516 102 492L102 384L129 384L225 408L324 408C441 408 441 408 441 297L324 297C57 297 57 207 57 132C57 87 57-12 234-12C351-12 412 34 452 64ZM201 147C201 213 201 213 324 213L441 213L441 129L297 93L264 93C201 93 201 93 201 147Z"  horiz-adv-x="657" vert-adv-y="1000"  />

      
      <glyph glyph-name="uni62" unicode="&#x62;" d="M222 732L186 732L90 708L90 0L133 0L197 48C241-12 369-12 390-12C636-12 636 159 636 228L636 264C636 349 636 516 423 516C357 516 278 492 222 450ZM498 252C498 102 498 102 336 102C306 102 270 102 222 114L222 366L350 398L357 398C498 398 498 398 498 252Z"  horiz-adv-x="702" vert-adv-y="1000"  />

      
      <glyph glyph-name="uni63" unicode="&#x63;" d="M327-12C363-12 456-12 552 12L552 120L525 120L428 96L371 96C204 96 204 96 204 252C204 408 204 408 327 408C431 408 431 408 456 309L576 339C576 387 576 516 351 516L303 516C66 516 66 366 66 276L66 228C66 138 66-12 327-12Z"  horiz-adv-x="627" vert-adv-y="1000"  />

      
      <glyph glyph-name="uni64" unicode="&#x64;" d="M480 708L480 489C420 504 369 516 300 516C66 516 66 345 66 276L66 228C66 144 66-12 285-12C390-12 455 37 491 64L550-14L648 59C612 107 612 107 612 192L612 732L576 732ZM204 252C204 402 204 402 351 402C387 402 432 402 480 390L480 138L352 106C204 106 204 106 204 252Z"  horiz-adv-x="702" vert-adv-y="1000"  />

      
      <glyph glyph-name="uni65" unicode="&#x65;" d="M204 207L327 207C471 207 501 207 552 219L588 228L588 277C588 360 588 516 351 516L303 516C66 516 66 360 66 276L66 228C66 138 66-12 327-12C366-12 456-12 552 12L552 120L525 120L429 96L327 96C204 96 204 96 204 207ZM204 291C204 411 204 411 327 411C450 411 450 411 450 291Z"  horiz-adv-x="651" vert-adv-y="1000"  />

      
      <glyph glyph-name="uni66" unicode="&#x66;" d="M243 0L243 402L393 402L393 504L243 504L243 528C243 612 243 612 315 612L321 612L393 594L420 594L420 702C348 720 312 720 288 720C111 720 111 582 111 528L111 504L27 504L27 402L111 402L111 0Z"  horiz-adv-x="420" vert-adv-y="1000"  />

      
      <glyph glyph-name="uni67" unicode="&#x67;" d="M351 516L468 672L468 708L348 708C294 636 261 594 261 516C51 516 51 416 51 369C51 276 113 261 149 252L149 237C107 181 80 145 80 101C80 75 80 0 242 0L348 0C432 0 432 0 432-54C432-108 432-108 348-108L201-108L105-84L78-84L78-192C174-216 258-216 312-216C567-216 567-102 567-33C567 117 414 117 336 117L273 117C195 117 195 117 195 154C195 198 195 198 273 198L336 198C573 198 573 282 573 369C573 417 573 516 351 516ZM312 423C429 423 429 423 429 357C429 291 429 291 312 291C195 291 195 291 195 357C195 423 195 423 312 423Z"  horiz-adv-x="633" vert-adv-y="1000"  />

      
      <glyph glyph-name="uni68" unicode="&#x68;" d="M222 732L186 732L90 708L90 0L222 0L222 366L350 398C486 398 486 398 486 259L486 0L618 0L618 288C618 363 618 516 420 516C357 516 278 492 222 450Z"  horiz-adv-x="702" vert-adv-y="1000"  />

      
      <glyph glyph-name="uni69" unicode="&#x69;" d="M90 480L90 0L222 0L222 504L186 504ZM135 726C69 726 69 687 69 663L69 645C69 621 69 582 135 582L177 582C243 582 243 621 243 645L243 663C243 687 243 726 177 726Z"  horiz-adv-x="312" vert-adv-y="1000"  />

      
      <glyph glyph-name="uni6a" unicode="&#x6a;" d="M222 504L186 504L90 480L90 54C90-55 90-55 2-123L72-216C222-103 222-54 222 90ZM135 726C69 726 69 687 69 663L69 645C69 621 69 582 135 582L177 582C243 582 243 621 243 645L243 663C243 687 243 726 177 726Z"  horiz-adv-x="312" vert-adv-y="1000"  />

      
      <glyph glyph-name="uni6b" unicode="&#x6b;" d="M90 708L90 0L222 0L222 195L384 195C384 140 420 92 489 0L630 0L630 38L478 240C606 336 606 336 606 462L606 504L462 504L462 462C462 309 462 309 312 309L222 309L222 732L186 732Z"  horiz-adv-x="678" vert-adv-y="1000"  />

      
      <glyph glyph-name="uni6c" unicode="&#x6c;" d="M84 708L84 184C84 82 84 81 154-14L252 59C216 109 216 109 216 184L216 732L180 732Z"  horiz-adv-x="306" vert-adv-y="1000"  />

      
      <glyph glyph-name="uni6d" unicode="&#x6d;" d="M942 315C942 378 942 516 756 516C666 516 601 470 561 440C540 470 503 516 399 516C309 516 244 470 204 440L156 504L90 504L90 0L222 0L222 366L350 398C450 398 450 398 450 301L450 0L582 0L582 366L710 398C810 398 810 398 810 301L810 0L942 0Z"  horiz-adv-x="1026" vert-adv-y="1000"  />

      
      <glyph glyph-name="uni6e" unicode="&#x6e;" d="M618 279C618 378 618 516 414 516C317 516 252 476 204 440L156 504L90 504L90 0L222 0L222 366L350 398C486 398 486 398 486 259L486 0L618 0Z"  horiz-adv-x="702" vert-adv-y="1000"  />

      
      <glyph glyph-name="uni6f" unicode="&#x6f;" d="M204 252C204 402 204 402 345 402C486 402 486 402 486 252C486 102 486 102 345 102C204 102 204 102 204 252ZM66 228C66 144 66-12 321-12L369-12C624-12 624 144 624 228L624 276C624 360 624 516 369 516L321 516C66 516 66 360 66 276Z"  horiz-adv-x="690" vert-adv-y="1000"  />

      
      <glyph glyph-name="uni70" unicode="&#x70;" d="M90 504L90-204L222-204L222 15C282 0 330-12 402-12C636-12 636 159 636 228L636 276C636 360 636 516 417 516C305 516 240 467 204 440L156 504ZM498 252C498 102 498 102 351 102C315 102 269 102 222 114L222 366L350 398L357 398C498 398 498 398 498 252Z"  horiz-adv-x="702" vert-adv-y="1000"  />

      
      <glyph glyph-name="uni71" unicode="&#x71;" d="M480-204L612-204L612 504L569 504L505 456C460 516 357 516 312 516C66 516 66 345 66 276L66 228C66 144 66-12 273-12C339-12 424 12 480 54ZM204 252C204 402 204 402 366 402C396 402 432 402 480 390L480 138L352 106C204 106 204 106 204 252Z"  horiz-adv-x="702" vert-adv-y="1000"  />

      
      <glyph glyph-name="uni72" unicode="&#x72;" d="M342 396C422 396 422 396 444 309L564 339C564 381 564 516 396 516C317 516 252 476 204 440L156 504L90 504L90 0L222 0L222 366Z"  horiz-adv-x="588" vert-adv-y="1000"  />

      
      <glyph glyph-name="uni73" unicode="&#x73;" d="M351 179C402 166 402 166 402 141C402 96 402 96 333 96L207 96L111 120L84 120L84 13C180-11 240-12 288-12C531-12 531 97 531 148C531 253 431 276 359 294L237 325C186 338 186 338 186 363C186 408 186 408 255 408L381 408L477 384L504 384L504 492C408 516 348 516 300 516C57 516 57 408 57 357C57 252 157 228 229 210Z"  horiz-adv-x="588" vert-adv-y="1000"  />

      
      <glyph glyph-name="uni74" unicode="&#x74;" d="M111 624L111 504L27 504L27 402L111 402L111 168C111 105 111-12 297-12C339-12 372-12 468 12L468 120L441 120L345 95L339 95C243 95 243 95 243 186L243 402L468 402L468 504L243 504L243 648L207 648Z"  horiz-adv-x="516" vert-adv-y="1000"  />

      
      <glyph glyph-name="uni75" unicode="&#x75;" d="M550-14L648 59C612 107 612 107 612 192L612 504L480 504L480 138L352 106C216 106 216 106 216 245L216 504L84 504L84 225C84 126 84-12 285-12C390-12 455 37 491 64Z"  horiz-adv-x="702" vert-adv-y="1000"  />

      
      <glyph glyph-name="uni76" unicode="&#x76;" d="M273 105C273 171 273 171 177 411L177 504L39 504C39 395 39 395 197 0L412 0C570 395 570 395 570 504L435 504L435 411C339 171 339 171 339 105Z"  horiz-adv-x="609" vert-adv-y="1000"  />

      
      <glyph glyph-name="uni77" unicode="&#x77;" d="M465 294C465 243 465 243 546 0L753 0C834 407 834 407 834 504L706 504L706 426C655 156 655 156 655 105L619 105C619 138 619 138 523 426L375 426C279 138 279 138 279 105L243 105C243 156 243 156 192 426L192 504L60 504C60 407 60 407 141 0L348 0C429 243 429 243 429 294Z"  horiz-adv-x="894" vert-adv-y="1000"  />

      
      <glyph glyph-name="uni78" unicode="&#x78;" d="M363 195C363 140 399 92 468 0L609 0L609 38L449 252L609 466L609 504L468 504C399 412 363 364 363 309L291 309C291 364 255 412 186 504L45 504L45 466L205 252L45 38L45 0L186 0C255 92 291 140 291 195Z"  horiz-adv-x="654" vert-adv-y="1000"  />

      
      <glyph glyph-name="uni79" unicode="&#x79;" d="M273 120C273 171 273 171 177 411L177 504L39 504C39 394 39 394 187 24L304 24L273-60C257-104 257-104 207-104L144-104L144-216L168-216C262-216 340-216 388-89L423 3C571 393 569 395 570 504L438 504L438 411C346 167 346 167 346 120Z"  horiz-adv-x="609" vert-adv-y="1000"  />

      
      <glyph glyph-name="uni7a" unicode="&#x7a;" d="M519 504L63 504L63 390L96 390C174 390 260 390 356 414L362 390L63 127L63 0L519 0L519 114L486 114C408 114 322 114 226 90L220 114L519 376Z"  horiz-adv-x="582" vert-adv-y="1000"  />

      
      <glyph glyph-name="uni7b" unicode="&#x7b;" d="M90 453C90 363 90 363 12 363L0 363L0 261L12 261C90 261 90 261 90 171C90-6 90-155 288-204L390-204L390-138L342-126C226-97 226-97 226-18L226 102C226 216 226 223 124 300L124 324C226 397 226 405 226 522L226 636C226 721 226 721 342 750L390 762L390 828L288 828C90 778 90 630 90 453Z"  horiz-adv-x="360" vert-adv-y="1000"  />

      
      <glyph glyph-name="uni7c" unicode="&#x7c;" d="M138-144L222-144L222 852L138 852Z"  horiz-adv-x="360" vert-adv-y="1000"  />

      
      <glyph glyph-name="uni7d" unicode="&#x7d;" d="M270 453C270 630 270 778 72 828L-30 828L-30 762L18 750C134 721 134 721 134 636L134 522C134 405 134 397 236 324L236 300C134 223 134 216 134 102L134-18C134-97 134-97 18-126L-30-138L-30-204L72-204C270-155 270-6 270 171C270 261 270 261 348 261L360 261L360 363L348 363C270 363 270 363 270 453Z"  horiz-adv-x="360" vert-adv-y="1000"  />

      
      <glyph glyph-name="uni7e" unicode="&#x7e;" d="M72 222L159 222C205 284 206 285 237 285C268 285 268 285 312 252C392 192 441 192 468 192C495 192 565 192 648 302L648 342L561 342C514 280 513 279 483 279C452 279 452 279 408 312C328 372 291 372 264 372C237 372 154 372 72 262Z"  horiz-adv-x="720" vert-adv-y="1000"  />

      
      <glyph glyph-name="unia1" unicode="&#xa1;" d="M243 255L129 255L129 117L120 81C99-4 99-66 99-132C99-168 99-216 168-216L204-216C273-216 273-168 273-132C273-66 273-3 252 81L243 117ZM216 342C285 342 285 384 285 408L285 438C285 462 285 504 216 504L156 504C87 504 87 462 87 438L87 408C87 384 87 342 156 342Z"  horiz-adv-x="360" vert-adv-y="1000"  />

      
      <glyph glyph-name="unia2" unicode="&#xa2;" d="M429 624L339 624L339 516C84 516 84 360 84 276L84 228C84 144 84-12 339-12L339-120L429-120L429-12C462-12 533-8 612 12L612 120L585 120L488 96L423 96L423 408L488 408L585 384L612 384L612 492C533 511 462 516 429 516ZM216 252C216 408 216 408 345 408L345 96C216 96 216 96 216 252Z"  horiz-adv-x="720" vert-adv-y="1000"  />

      
      <glyph glyph-name="unia3" unicode="&#xa3;" d="M423 726C159 726 159 543 159 473L159 453L39 453L39 384L159 384L159 324L39 324L39 255L159 255C159 142 159 142 81 84L162-24C194 0 222 0 282 0L678 0L678 126L264 126L264 150C291 185 294 209 294 255L516 255L516 324L294 324L294 384L516 384L516 453L294 453L294 491C294 597 294 597 447 597L492 597L636 561L678 561L678 688C526 726 453 726 423 726Z"  horiz-adv-x="720" vert-adv-y="1000"  />

      
      <glyph glyph-name="unia4" unicode="&#xa4;" d="M564 297C564 468 420 468 369 468L351 468C300 468 156 468 156 297L156 279C156 108 300 108 351 108L369 108C420 108 564 108 564 279Z"  horiz-adv-x="720" vert-adv-y="1000"  />

      
      <glyph glyph-name="unia5" unicode="&#xa5;" d="M690 661L690 708L540 708C435 568 399 520 399 453L321 453C321 520 285 568 180 708L30 708L30 661L186 453L75 453L75 384L237 384L282 324L75 324L75 255L288 255L288 0L432 0L432 255L645 255L645 324L438 324L483 384L645 384L645 453L534 453Z"  horiz-adv-x="720" vert-adv-y="1000"  />

      
      <glyph glyph-name="unia6" unicode="&#xa6;" d="M138 468L222 468L222 810L138 810ZM138-102L222-102L222 240L138 240Z"  horiz-adv-x="360" vert-adv-y="1000"  />

      
      <glyph glyph-name="unia7" unicode="&#xa7;" d="M85 286C85 156 179 132 264 111L412 74C470 59 470 58 470 30C470-9 470-9 417-9L276-9L180 15L153 15L153-96C249-120 312-120 360-120C597-120 597-21 597 33C597 120 537 135 513 141L513 159C635 189 635 267 635 318C635 448 540 472 456 493L308 530C250 544 250 544 250 574C250 613 250 613 303 613L444 613L540 589L567 589L567 700C471 724 408 724 360 724C123 724 123 625 123 571C123 484 183 469 207 463L207 445C85 414 85 337 85 286ZM216 308C216 387 216 387 306 387L426 387C504 367 504 367 504 296C504 217 504 217 414 217L294 217C216 236 216 236 216 308Z"  horiz-adv-x="720" vert-adv-y="1000"  />

      
      <glyph glyph-name="unia8" unicode="&#xa8;" d="M96 726C30 726 30 687 30 663L30 645C30 621 30 582 96 582L129 582C195 582 195 621 195 645L195 663C195 687 195 726 129 726ZM363 726C297 726 297 687 297 663L297 645C297 621 297 582 363 582L396 582C462 582 462 621 462 645L462 663C462 687 462 726 396 726Z"  horiz-adv-x="492" vert-adv-y="1000"  />

      
      <glyph glyph-name="unia9" unicode="&#xa9;" d="M1098 393C1098 663 1097 771 673 771L527 771C102 771 102 663 102 393L102 207C102-63 102-171 527-171L673-171C1097-171 1098-63 1098 207ZM862 418C862 475 862 607 609 607L573 607C326 607 320 452 320 321L320 273C320 132 320-13 594-13C651-13 713-13 840 19L840 121L807 121L686 91L645 91C451 91 451 91 451 283L451 311C451 503 451 503 594 503C721 503 721 503 750 391ZM210 375C210 681 210 681 600 681C990 681 990 681 990 375L990 225C990-81 990-81 600-81C210-81 210-81 210 225Z"  horiz-adv-x="1200" vert-adv-y="1000"  />

      
      <glyph glyph-name="uniaa" unicode="&#xaa;" d="M352 364L425 419C399 453 399 453 399 496L399 572C399 632 396 720 233 720C217 720 167 720 87 700L87 621L108 621L180 639L234 639C298 639 298 639 298 574L235 574C52 574 51 513 51 469L51 468C51 430 51 368 176 368C238 368 279 390 312 415ZM39 243L429 243L429 312L39 312ZM159 477C159 514 159 514 228 514L298 514L298 460L228 442L201 442C159 442 159 442 159 477Z"  horiz-adv-x="468" vert-adv-y="1000"  />

      
      <glyph glyph-name="uniab" unicode="&#xab;" d="M270 0L318 0L318 36C318 118 288 158 222 246L205 268L306 402L306 504L270 504L93 268L93 236ZM504 0L552 0L552 36C552 118 522 158 456 246L439 268L540 402L540 504L504 504L327 268L327 236Z"  horiz-adv-x="630" vert-adv-y="1000"  />

      
      <glyph glyph-name="uniac" unicode="&#xac;" d="M90 318L90 252L558 252L558 54L630 54L630 318Z"  horiz-adv-x="720" vert-adv-y="1000"  />

      
      <glyph glyph-name="uniad" unicode="&#xad;" d="M30 339L30 234L330 234L330 339Z"  horiz-adv-x="360" vert-adv-y="1000"  />

      
      <glyph glyph-name="uniae" unicode="&#xae;" d="M840 651C840 867 840 956 502 956L392 956C54 956 54 870 54 651L54 521C54 302 54 216 392 216L502 216C840 216 840 305 840 521ZM413 792L261 792L261 384L369 384L369 534L491 534C491 485 507 457 562 384L671 384L671 420L573 561C640 612 656 631 656 676C656 792 575 792 413 792ZM458 711C541 711 541 711 541 664C541 615 541 615 458 615L369 615L369 711ZM144 638C144 881 144 881 447 881C750 881 750 881 750 638L750 534C750 291 750 291 447 291C144 291 144 291 144 534Z"  horiz-adv-x="894" vert-adv-y="1000"  />

      
      <glyph glyph-name="uniaf" unicode="&#xaf;" d="M21 720L21 616L399 616L399 720Z"  horiz-adv-x="420" vert-adv-y="1000"  />

      
      <glyph glyph-name="unib0" unicode="&#xb0;" d="M447 705C447 864 315 864 261 864L243 864C189 864 57 864 57 705L57 687C57 528 189 528 243 528L261 528C315 528 447 528 447 687ZM171 705C171 777 171 777 252 777C333 777 333 777 333 705L333 687C333 615 333 615 252 615C171 615 171 615 171 687Z"  horiz-adv-x="720" vert-adv-y="1000"  />

      
      <glyph glyph-name="unib1" unicode="&#xb1;" d="M324 120L396 120L396 252L606 252L606 318L396 318L396 516L324 516L324 318L114 318L114 252L324 252ZM114 66L114 0L606 0L606 66Z"  horiz-adv-x="720" vert-adv-y="1000"  />

      
      <glyph glyph-name="unib2" unicode="&#xb2;" d="M249 857C54 857 54 759 54 729L54 720L152 696C171 772 171 772 249 772C328 772 328 772 328 723C328 681 328 681 252 662L180 644C66 616 66 569 66 527L66 438L429 438L429 522L171 522L171 530C171 557 172 557 215 568L311 592C438 623 438 674 438 726C438 768 438 857 249 857Z"  horiz-adv-x="720" vert-adv-y="1000"  />

      
      <glyph glyph-name="unib3" unicode="&#xb3;" d="M280 609C339 609 339 609 339 567C339 519 339 519 263 519L187 519L94 540L69 540L69 457C167 435 224 435 252 435C450 435 450 531 450 561L450 574C450 673 363 673 324 673L310 673L310 684L335 703C432 776 432 776 432 804L432 852L69 852L69 723L153 723L153 777L301 777L301 762L161 657L211 590C239 609 259 609 280 609Z"  horiz-adv-x="720" vert-adv-y="1000"  />

      
      <glyph glyph-name="unib4" unicode="&#xb4;" d="M30 570L90 570C178 570 238 615 366 711L366 750L226 750L30 603Z"  horiz-adv-x="393" vert-adv-y="1000"  />

      
      <glyph glyph-name="unib5" unicode="&#xb5;" d="M564 297C564 468 420 468 369 468L351 468C300 468 156 468 156 297L156 279C156 108 300 108 351 108L369 108C420 108 564 108 564 279Z"  horiz-adv-x="720" vert-adv-y="1000"  />

      
      <glyph glyph-name="unib6" unicode="&#xb6;" d="M576 597L597 681L597 708L252 708C177 708 60 708 60 546L60 534C60 372 177 372 252 372L276 372L276 0L384 0L384 624L468 624L468 0L576 0Z"  horiz-adv-x="720" vert-adv-y="1000"  />

      
      <glyph glyph-name="unib7" unicode="&#xb7;" d="M150 363C81 363 81 321 81 297L81 267C81 243 81 201 150 201L210 201C279 201 279 243 279 267L279 297C279 321 279 363 210 363Z"  horiz-adv-x="360" vert-adv-y="1000"  />

      
      <glyph glyph-name="unib8" unicode="&#xb8;" d="M24-210C96-228 153-228 177-228C336-228 336-168 336-129C336-48 261-48 213-48L204-48L204 0L138 12L114-84L114-108L192-108C231-108 231-108 231-132C231-156 231-156 192-156L123-156L51-138L24-138Z"  horiz-adv-x="357" vert-adv-y="1000"  />

      
      <glyph glyph-name="unib9" unicode="&#xb9;" d="M84 438L447 438L447 522L324 522L324 852L244 852L84 814L84 762L222 762L222 522L84 522Z"  horiz-adv-x="720" vert-adv-y="1000"  />

      
      <glyph glyph-name="uniba" unicode="&#xba;" d="M153 544C153 636 153 636 234 636C315 636 315 636 315 544C315 452 315 452 234 452C153 452 153 452 153 544ZM50 531C50 484 50 368 217 368L251 368C418 368 418 484 418 531L418 557C418 604 418 720 251 720L217 720C50 720 50 604 50 557ZM39 243L429 243L429 312L39 312Z"  horiz-adv-x="468" vert-adv-y="1000"  />

      
      <glyph glyph-name="unibb" unicode="&#xbb;" d="M360 504L312 504L312 468C312 386 342 346 408 258L424 236L324 102L324 0L360 0L537 236L537 268ZM126 504L78 504L78 468C78 386 108 346 174 258L190 236L90 102L90 0L126 0L303 236L303 268Z"  horiz-adv-x="630" vert-adv-y="1000"  />

      
      <glyph glyph-name="unibc" unicode="&#xbc;" d="M547 69L547 0L643 0L643 69L714 69L714 153L643 153L643 270L607 270L547 255L547 153L392 153L392 167L478 282C511 326 520 355 520 400L520 414L412 414L412 395C412 336 412 336 376 288L286 168L286 69ZM27 438L390 438L390 522L267 522L267 852L187 852L27 814L27 762L165 762L165 522L27 522Z"  horiz-adv-x="720" vert-adv-y="1000"  />

      
      <glyph glyph-name="unibd" unicode="&#xbd;" d="M27 438L390 438L390 522L267 522L267 852L187 852L27 814L27 762L165 762L165 522L27 522ZM504 419C309 419 309 321 309 291L309 282L407 258C426 334 426 334 504 334C583 334 583 334 583 285C583 243 583 243 507 224L435 206C321 178 321 131 321 89L321 0L684 0L684 84L426 84L426 92C426 119 427 119 470 130L566 154C693 185 693 236 693 288C693 330 693 419 504 419Z"  horiz-adv-x="720" vert-adv-y="1000"  />

      
      <glyph glyph-name="unibe" unicode="&#xbe;" d="M547 69L547 0L643 0L643 69L714 69L714 153L643 153L643 270L607 270L547 255L547 153L392 153L392 167L478 282C511 326 520 355 520 400L520 414L412 414L412 395C412 336 412 336 376 288L286 168L286 69ZM237 609C296 609 296 609 296 567C296 519 296 519 220 519L144 519L51 540L26 540L26 457C124 435 181 435 209 435C407 435 407 531 407 561L407 574C407 673 320 673 281 673L267 673L267 684L292 703C389 776 389 776 389 804L389 852L26 852L26 723L110 723L110 777L258 777L258 762L118 657L168 590C196 609 216 609 237 609Z"  horiz-adv-x="720" vert-adv-y="1000"  />

      
      <glyph glyph-name="unibf" unicode="&#xbf;" d="M378 342C447 342 447 384 447 408L447 438C447 462 447 504 378 504L318 504C249 504 249 462 249 438L249 408C249 384 249 342 318 342ZM312-222C357-222 421-222 573-184L573-63L531-63L387-99L300-99C225-99 220-99 220-30C220 13 220 16 350 111L408 153L408 255L291 255L291 218L268 201C105 80 69 35 69-48C69-90 70-222 312-222Z"  horiz-adv-x="621" vert-adv-y="1000"  />

      
      <glyph glyph-name="unic0" unicode="&#xc0;" d="M285 708L21 48L21 0L160 0L226 165L596 165L662 0L801 0L801 48L537 708ZM361 576L461 576C461 510 485 450 551 285L271 285C337 450 361 510 361 576ZM579 801L383 948L243 948L243 909C371 813 431 768 519 768L579 768Z"  horiz-adv-x="822" vert-adv-y="1000"  />

      
      <glyph glyph-name="unic1" unicode="&#xc1;" d="M285 708L21 48L21 0L160 0L226 165L596 165L662 0L801 0L801 48L537 708ZM361 576L461 576C461 510 485 450 551 285L271 285C337 450 361 510 361 576ZM243 768L303 768C391 768 451 813 579 909L579 948L439 948L243 801Z"  horiz-adv-x="822" vert-adv-y="1000"  />

      
      <glyph glyph-name="unic2" unicode="&#xc2;" d="M285 708L21 48L21 0L160 0L226 165L596 165L662 0L801 0L801 48L537 708ZM361 576L461 576C461 510 485 450 551 285L271 285C337 450 361 510 361 576ZM631 801L435 948L383 948L187 801L187 768L241 768C298 768 342 801 398 843L420 843C476 801 520 768 577 768L631 768Z"  horiz-adv-x="822" vert-adv-y="1000"  />

      
      <glyph glyph-name="unic3" unicode="&#xc3;" d="M285 708L21 48L21 0L160 0L226 165L596 165L662 0L801 0L801 48L537 708ZM361 576L461 576C461 510 485 450 551 285L271 285C337 450 361 510 361 576ZM374 812C426 773 456 773 480 773C534 773 582 804 645 888L645 922L552 922L511 868L486 868L454 892C402 931 372 931 348 931C290 931 246 900 183 816L183 782L276 782L316 836L342 836Z"  horiz-adv-x="822" vert-adv-y="1000"  />

      
      <glyph glyph-name="unic4" unicode="&#xc4;" d="M285 708L21 48L21 0L160 0L226 165L596 165L662 0L801 0L801 48L537 708ZM361 576L461 576C461 510 485 450 551 285L271 285C337 450 361 510 361 576ZM261 924C195 924 195 885 195 861L195 843C195 819 195 780 261 780L294 780C360 780 360 819 360 843L360 861C360 885 360 924 294 924ZM528 924C462 924 462 885 462 861L462 843C462 819 462 780 528 780L561 780C627 780 627 819 627 843L627 861C627 885 627 924 561 924Z"  horiz-adv-x="822" vert-adv-y="1000"  />

      
      <glyph glyph-name="unic5" unicode="&#xc5;" d="M285 708L21 48L21 0L160 0L226 165L596 165L662 0L801 0L801 48L537 708ZM361 576L461 576C461 510 485 450 551 285L271 285C337 450 361 510 361 576ZM393 975C252 975 252 912 252 885L252 855C252 828 252 765 393 765L429 765C570 765 570 828 570 855L570 885C570 912 570 975 429 975ZM432 909C471 909 471 909 471 876L471 864C471 831 471 831 432 831L390 831C351 831 351 831 351 864L351 876C351 909 351 909 390 909Z"  horiz-adv-x="822" vert-adv-y="1000"  />

      
      <glyph glyph-name="unic6" unicode="&#xc6;" d="M285 708L21 48L21 0L160 0L226 165L547 165L589 0L1029 0L1029 126L708 126L667 291L960 291L960 417L635 417L594 582L1029 582L1029 708ZM361 582L462 582C462 510 477 450 518 285L271 285C337 450 361 510 361 582Z"  horiz-adv-x="1098" vert-adv-y="1000"  />

      
      <glyph glyph-name="unic7" unicode="&#xc7;" d="M273-210C345-228 402-228 426-228C585-228 585-168 585-129C585-48 510-48 462-48L453-48L453-10C473-10 585-10 705 20L705 155L663 155L519 119L453 119C231 119 231 119 231 336L231 372C231 589 231 589 411 589C550 589 550 589 584 453L726 488C726 549 726 726 432 726L390 726C75 726 75 504 75 384L75 324C75 186 75-10 381-10L363-84L363-108L441-108C480-108 480-108 480-132C480-156 480-156 441-156L372-156L300-138L273-138Z"  horiz-adv-x="783" vert-adv-y="1000"  />

      
      <glyph glyph-name="unic8" unicode="&#xc8;" d="M105 0L663 0L663 126L249 126L249 291L594 291L594 417L249 417L249 582L663 582L663 708L105 708ZM505 801L309 948L169 948L169 909C297 813 357 768 445 768L505 768Z"  horiz-adv-x="732" vert-adv-y="1000"  />

      
      <glyph glyph-name="unic9" unicode="&#xc9;" d="M105 0L663 0L663 126L249 126L249 291L594 291L594 417L249 417L249 582L663 582L663 708L105 708ZM219 768L279 768C367 768 427 813 555 909L555 948L415 948L219 801Z"  horiz-adv-x="732" vert-adv-y="1000"  />

      
      <glyph glyph-name="unica" unicode="&#xca;" d="M105 0L663 0L663 126L249 126L249 291L594 291L594 417L249 417L249 582L663 582L663 708L105 708ZM600 801L404 948L352 948L156 801L156 768L210 768C267 768 311 801 367 843L389 843C445 801 489 768 546 768L600 768Z"  horiz-adv-x="732" vert-adv-y="1000"  />

      
      <glyph glyph-name="unicb" unicode="&#xcb;" d="M105 0L663 0L663 126L249 126L249 291L594 291L594 417L249 417L249 582L663 582L663 708L105 708ZM220 924C154 924 154 885 154 861L154 843C154 819 154 780 220 780L253 780C319 780 319 819 319 843L319 861C319 885 319 924 253 924ZM487 924C421 924 421 885 421 861L421 843C421 819 421 780 487 780L520 780C586 780 586 819 586 843L586 861C586 885 586 924 520 924Z"  horiz-adv-x="732" vert-adv-y="1000"  />

      
      <glyph glyph-name="unicc" unicode="&#xcc;" d="M249 0L249 708L105 708L105 0ZM326 807L130 954L-10 954L-10 915C118 819 178 774 266 774L326 774Z"  horiz-adv-x="354" vert-adv-y="1000"  />

      
      <glyph glyph-name="unicd" unicode="&#xcd;" d="M249 0L249 708L105 708L105 0ZM29 774L89 774C177 774 237 819 365 915L365 954L225 954L29 807Z"  horiz-adv-x="354" vert-adv-y="1000"  />

      
      <glyph glyph-name="unice" unicode="&#xce;" d="M249 0L249 708L105 708L105 0ZM398 801L202 948L150 948L-46 801L-46 768L8 768C65 768 109 801 165 843L187 843C243 801 287 768 344 768L398 768Z"  horiz-adv-x="354" vert-adv-y="1000"  />

      
      <glyph glyph-name="unicf" unicode="&#xcf;" d="M249 0L249 708L105 708L105 0ZM27 924C-39 924-39 885-39 861L-39 843C-39 819-39 780 27 780L60 780C126 780 126 819 126 843L126 861C126 885 126 924 60 924ZM294 924C228 924 228 885 228 861L228 843C228 819 228 780 294 780L327 780C393 780 393 819 393 843L393 861C393 885 393 924 327 924Z"  horiz-adv-x="354" vert-adv-y="1000"  />

      
      <glyph glyph-name="unid0" unicode="&#xd0;" d="M30 297L120 297L120 0L294 0C624 0 780 0 780 354C780 708 624 708 294 708L120 708L120 411L30 411ZM264 582L402 582C624 582 624 582 624 354C624 126 624 126 402 126L264 126L264 297L432 297L432 411L264 411Z"  horiz-adv-x="855" vert-adv-y="1000"  />

      
      <glyph glyph-name="unid1" unicode="&#xd1;" d="M586 192C586 262 544 325 291 708L105 708L105 0L241 0L241 516L284 516C284 442 326 379 579 0L765 0L765 708L629 708L629 192ZM398 812C450 773 480 773 504 773C558 773 606 804 669 888L669 922L576 922L535 868L510 868L478 892C426 931 396 931 372 931C314 931 270 900 207 816L207 782L300 782L340 836L366 836Z"  horiz-adv-x="870" vert-adv-y="1000"  />

      
      <glyph glyph-name="unid2" unicode="&#xd2;" d="M441 588C650 588 651 588 651 366L651 342C651 121 651 120 441 120C232 120 231 120 231 342L231 366C231 587 231 588 441 588ZM405 726C75 726 75 504 75 384L75 324C75 204 75-18 405-18L477-18C807-18 807 204 807 324L807 384C807 504 807 726 477 726ZM607 801L411 948L271 948L271 909C399 813 459 768 547 768L607 768Z"  horiz-adv-x="882" vert-adv-y="1000"  />

      
      <glyph glyph-name="unid3" unicode="&#xd3;" d="M441 588C650 588 651 588 651 366L651 342C651 121 651 120 441 120C232 120 231 120 231 342L231 366C231 587 231 588 441 588ZM405 726C75 726 75 504 75 384L75 324C75 204 75-18 405-18L477-18C807-18 807 204 807 324L807 384C807 504 807 726 477 726ZM274 768L334 768C422 768 482 813 610 909L610 948L470 948L274 801Z"  horiz-adv-x="882" vert-adv-y="1000"  />

      
      <glyph glyph-name="unid4" unicode="&#xd4;" d="M441 588C650 588 651 588 651 366L651 342C651 121 651 120 441 120C232 120 231 120 231 342L231 366C231 587 231 588 441 588ZM405 726C75 726 75 504 75 384L75 324C75 204 75-18 405-18L477-18C807-18 807 204 807 324L807 384C807 504 807 726 477 726ZM661 801L465 948L413 948L217 801L217 768L271 768C328 768 372 801 428 843L450 843C506 801 550 768 607 768L661 768Z"  horiz-adv-x="882" vert-adv-y="1000"  />

      
      <glyph glyph-name="unid5" unicode="&#xd5;" d="M441 588C650 588 651 588 651 366L651 342C651 121 651 120 441 120C232 120 231 120 231 342L231 366C231 587 231 588 441 588ZM405 726C75 726 75 504 75 384L75 324C75 204 75-18 405-18L477-18C807-18 807 204 807 324L807 384C807 504 807 726 477 726ZM404 812C456 773 486 773 510 773C564 773 612 804 675 888L675 922L582 922L541 868L516 868L484 892C432 931 402 931 378 931C320 931 276 900 213 816L213 782L306 782L346 836L372 836Z"  horiz-adv-x="882" vert-adv-y="1000"  />

      
      <glyph glyph-name="unid6" unicode="&#xd6;" d="M441 588C650 588 651 588 651 366L651 342C651 121 651 120 441 120C232 120 231 120 231 342L231 366C231 587 231 588 441 588ZM405 726C75 726 75 504 75 384L75 324C75 204 75-18 405-18L477-18C807-18 807 204 807 324L807 384C807 504 807 726 477 726ZM291 924C225 924 225 885 225 861L225 843C225 819 225 780 291 780L324 780C390 780 390 819 390 843L390 861C390 885 390 924 324 924ZM558 924C492 924 492 885 492 861L492 843C492 819 492 780 558 780L591 780C657 780 657 819 657 843L657 861C657 885 657 924 591 924Z"  horiz-adv-x="882" vert-adv-y="1000"  />

      
      <glyph glyph-name="unid7" unicode="&#xd7;" d="M562 37L608 83L406 285L608 487L562 533L360 331L158 533L112 487L314 285L112 83L158 37L360 239Z"  horiz-adv-x="720" vert-adv-y="1000"  />

      
      <glyph glyph-name="unid8" unicode="&#xd8;" d="M410 405C377 372 327 322 252 222L228 222L228 366C228 590 228 591 441 591C482 591 554 590 582 577ZM146-23L202 33C268-18 378-18 429-18L477-18C807-18 807 204 807 324L807 369C807 438 807 533 762 593L818 649L736 731L680 675C614 726 504 726 453 726L405 726C75 726 75 504 75 384L75 339C75 270 75 175 120 115L64 59ZM472 303C505 336 555 386 630 486L654 486L654 342C654 118 654 117 441 117C400 117 328 118 300 131Z"  horiz-adv-x="882" vert-adv-y="1000"  />

      
      <glyph glyph-name="unid9" unicode="&#xd9;" d="M771 708L627 708L627 315C627 123 627 123 435 123C243 123 243 123 243 315L243 708L99 708L99 300C99 180 99-18 405-18L465-18C771-18 771 180 771 300ZM595 801L399 948L259 948L259 909C387 813 447 768 535 768L595 768Z"  horiz-adv-x="870" vert-adv-y="1000"  />

      
      <glyph glyph-name="unida" unicode="&#xda;" d="M771 708L627 708L627 315C627 123 627 123 435 123C243 123 243 123 243 315L243 708L99 708L99 300C99 180 99-18 405-18L465-18C771-18 771 180 771 300ZM274 768L334 768C422 768 482 813 610 909L610 948L470 948L274 801Z"  horiz-adv-x="870" vert-adv-y="1000"  />

      
      <glyph glyph-name="unidb" unicode="&#xdb;" d="M771 708L627 708L627 315C627 123 627 123 435 123C243 123 243 123 243 315L243 708L99 708L99 300C99 180 99-18 405-18L465-18C771-18 771 180 771 300ZM655 801L459 948L407 948L211 801L211 768L265 768C322 768 366 801 422 843L444 843C500 801 544 768 601 768L655 768Z"  horiz-adv-x="870" vert-adv-y="1000"  />

      
      <glyph glyph-name="unidc" unicode="&#xdc;" d="M771 708L627 708L627 315C627 123 627 123 435 123C243 123 243 123 243 315L243 708L99 708L99 300C99 180 99-18 405-18L465-18C771-18 771 180 771 300ZM285 924C219 924 219 885 219 861L219 843C219 819 219 780 285 780L318 780C384 780 384 819 384 843L384 861C384 885 384 924 318 924ZM552 924C486 924 486 885 486 861L486 843C486 819 486 780 552 780L585 780C651 780 651 819 651 843L651 861C651 885 651 924 585 924Z"  horiz-adv-x="870" vert-adv-y="1000"  />

      
      <glyph glyph-name="unidd" unicode="&#xdd;" d="M753 660L753 708L597 708C480 552 423 476 423 417L345 417C345 476 288 552 171 708L15 708L15 660L312 264L312 0L456 0L456 264ZM229 768L289 768C377 768 437 813 565 909L565 948L425 948L229 801Z"  horiz-adv-x="768" vert-adv-y="1000"  />

      
      <glyph glyph-name="unide" unicode="&#xde;" d="M249 484L426 484C558 484 558 484 558 354C558 223 558 223 426 223L249 223ZM105 0L249 0L249 97L354 97C558 97 711 97 711 354C711 610 558 610 354 610L249 610L249 708L105 708Z"  horiz-adv-x="774" vert-adv-y="1000"  />

      
      <glyph glyph-name="unidf" unicode="&#xdf;" d="M222 0L222 492C222 618 222 618 360 618C486 618 486 618 486 516L486 498L456 498C297 498 297 396 297 354C297 246 397 221 451 207L513 192C571 177 571 177 571 138C571 96 571 96 502 96L432 96L336 120L309 120L309 12C405-12 465-12 483-12C693-12 693 105 693 150C693 261 593 286 539 299L477 315C419 329 419 329 419 369C419 411 419 411 488 411L504 411L552 423C620 440 620 492 620 528C620 588 620 724 360 724C90 724 90 588 90 468L90 0Z"  horiz-adv-x="738" vert-adv-y="1000"  />

      
      <glyph glyph-name="unie0" unicode="&#xe0;" d="M452 64L511-14L609 59C573 107 573 107 573 199L573 288C573 378 573 516 324 516C285 516 198 516 102 492L102 384L129 384L225 408L324 408C441 408 441 408 441 297L324 297C57 297 57 207 57 132C57 87 57-12 234-12C351-12 412 34 452 64ZM201 147C201 213 201 213 324 213L441 213L441 129L297 93L264 93C201 93 201 93 201 147ZM492 603L296 750L156 750L156 711C284 615 344 570 432 570L492 570Z"  horiz-adv-x="657" vert-adv-y="1000"  />

      
      <glyph glyph-name="unie1" unicode="&#xe1;" d="M452 64L511-14L609 59C573 107 573 107 573 199L573 288C573 378 573 516 324 516C285 516 198 516 102 492L102 384L129 384L225 408L324 408C441 408 441 408 441 297L324 297C57 297 57 207 57 132C57 87 57-12 234-12C351-12 412 34 452 64ZM201 147C201 213 201 213 324 213L441 213L441 129L297 93L264 93C201 93 201 93 201 147ZM159 570L219 570C307 570 367 615 495 711L495 750L355 750L159 603Z"  horiz-adv-x="657" vert-adv-y="1000"  />

      
      <glyph glyph-name="unie2" unicode="&#xe2;" d="M452 64L511-14L609 59C573 107 573 107 573 199L573 288C573 378 573 516 324 516C285 516 198 516 102 492L102 384L129 384L225 408L324 408C441 408 441 408 441 297L324 297C57 297 57 207 57 132C57 87 57-12 234-12C351-12 412 34 452 64ZM201 147C201 213 201 213 324 213L441 213L441 129L297 93L264 93C201 93 201 93 201 147ZM546 603L350 750L298 750L102 603L102 570L156 570C213 570 257 603 313 645L335 645C391 603 435 570 492 570L546 570Z"  horiz-adv-x="657" vert-adv-y="1000"  />

      
      <glyph glyph-name="unie3" unicode="&#xe3;" d="M452 64L511-14L609 59C573 107 573 107 573 199L573 288C573 378 573 516 324 516C285 516 198 516 102 492L102 384L129 384L225 408L324 408C441 408 441 408 441 297L324 297C57 297 57 207 57 132C57 87 57-12 234-12C351-12 412 34 452 64ZM201 147C201 213 201 213 324 213L441 213L441 129L297 93L264 93C201 93 201 93 201 147ZM293 614C345 575 375 575 399 575C453 575 501 606 564 690L564 724L471 724L430 670L405 670L373 694C321 733 291 733 267 733C209 733 165 702 102 618L102 584L195 584L235 638L261 638Z"  horiz-adv-x="657" vert-adv-y="1000"  />

      
      <glyph glyph-name="unie4" unicode="&#xe4;" d="M452 64L511-14L609 59C573 107 573 107 573 199L573 288C573 378 573 516 324 516C285 516 198 516 102 492L102 384L129 384L225 408L324 408C441 408 441 408 441 297L324 297C57 297 57 207 57 132C57 87 57-12 234-12C351-12 412 34 452 64ZM201 147C201 213 201 213 324 213L441 213L441 129L297 93L264 93C201 93 201 93 201 147ZM178 726C112 726 112 687 112 663L112 645C112 621 112 582 178 582L211 582C277 582 277 621 277 645L277 663C277 687 277 726 211 726ZM445 726C379 726 379 687 379 663L379 645C379 621 379 582 445 582L478 582C544 582 544 621 544 645L544 663C544 687 544 726 478 726Z"  horiz-adv-x="657" vert-adv-y="1000"  />

      
      <glyph glyph-name="unie5" unicode="&#xe5;" d="M452 64L511-14L609 59C573 107 573 107 573 199L573 288C573 378 573 516 324 516C285 516 198 516 102 492L102 384L129 384L225 408L324 408C441 408 441 408 441 297L324 297C57 297 57 207 57 132C57 87 57-12 234-12C351-12 412 34 452 64ZM201 147C201 213 201 213 324 213L441 213L441 129L297 93L264 93C201 93 201 93 201 147ZM298 777C157 777 157 714 157 687L157 657C157 630 157 567 298 567L334 567C475 567 475 630 475 657L475 687C475 714 475 777 334 777ZM337 711C376 711 376 711 376 678L376 666C376 633 376 633 337 633L295 633C256 633 256 633 256 666L256 678C256 711 256 711 295 711Z"  horiz-adv-x="657" vert-adv-y="1000"  />

      
      <glyph glyph-name="unie6" unicode="&#xe6;" d="M546 213L642 213C786 213 807 213 858 225L894 234L894 277C894 360 894 516 666 516L654 516C621 516 534 516 483 466L462 466C410 516 332 516 297 516C273 516 198 516 102 492L102 384L129 384L225 408L291 408C402 408 402 408 402 291L291 291C57 291 57 195 57 132C57 87 57-12 219-12C327-12 391 36 447 78C479 36 515-12 654-12C681-12 762-12 858 12L858 120L831 120L735 96L654 96C546 96 546 99 546 213ZM546 291C546 411 546 411 651 411C756 411 756 411 756 291ZM198 147C198 213 198 213 309 213L402 213L402 126L270 93L261 93C198 93 198 93 198 147Z"  horiz-adv-x="954" vert-adv-y="1000"  />

      
      <glyph glyph-name="unie7" unicode="&#xe7;" d="M183-210C255-228 312-228 336-228C495-228 495-168 495-129C495-48 420-48 372-48L363-48L363-8C384-8 475-8 552 12L552 120L525 120L428 96L371 96C204 96 204 96 204 252C204 408 204 408 327 408C431 408 431 408 456 309L576 339C576 387 576 516 351 516L303 516C66 516 66 366 66 276L66 228C66 144 66-8 292-8L273-84L273-108L351-108C390-108 390-108 390-132C390-156 390-156 351-156L282-156L210-138L183-138Z"  horiz-adv-x="627" vert-adv-y="1000"  />

      
      <glyph glyph-name="unie8" unicode="&#xe8;" d="M204 207L327 207C471 207 501 207 552 219L588 228L588 277C588 360 588 516 351 516L303 516C66 516 66 360 66 276L66 228C66 138 66-12 327-12C366-12 456-12 552 12L552 120L525 120L429 96L327 96C204 96 204 96 204 207ZM204 291C204 411 204 411 327 411C450 411 450 411 450 291ZM492 603L296 750L156 750L156 711C284 615 344 570 432 570L492 570Z"  horiz-adv-x="651" vert-adv-y="1000"  />

      
      <glyph glyph-name="unie9" unicode="&#xe9;" d="M204 207L327 207C471 207 501 207 552 219L588 228L588 277C588 360 588 516 351 516L303 516C66 516 66 360 66 276L66 228C66 138 66-12 327-12C366-12 456-12 552 12L552 120L525 120L429 96L327 96C204 96 204 96 204 207ZM204 291C204 411 204 411 327 411C450 411 450 411 450 291ZM159 570L219 570C307 570 367 615 495 711L495 750L355 750L159 603Z"  horiz-adv-x="651" vert-adv-y="1000"  />

      
      <glyph glyph-name="uniea" unicode="&#xea;" d="M204 207L327 207C471 207 501 207 552 219L588 228L588 277C588 360 588 516 351 516L303 516C66 516 66 360 66 276L66 228C66 138 66-12 327-12C366-12 456-12 552 12L552 120L525 120L429 96L327 96C204 96 204 96 204 207ZM204 291C204 411 204 411 327 411C450 411 450 411 450 291ZM546 603L350 750L298 750L102 603L102 570L156 570C213 570 257 603 313 645L335 645C391 603 435 570 492 570L546 570Z"  horiz-adv-x="651" vert-adv-y="1000"  />

      
      <glyph glyph-name="unieb" unicode="&#xeb;" d="M204 207L327 207C471 207 501 207 552 219L588 228L588 277C588 360 588 516 351 516L303 516C66 516 66 360 66 276L66 228C66 138 66-12 327-12C366-12 456-12 552 12L552 120L525 120L429 96L327 96C204 96 204 96 204 207ZM204 291C204 411 204 411 327 411C450 411 450 411 450 291ZM177 726C111 726 111 687 111 663L111 645C111 621 111 582 177 582L210 582C276 582 276 621 276 645L276 663C276 687 276 726 210 726ZM444 726C378 726 378 687 378 663L378 645C378 621 378 582 444 582L477 582C543 582 543 621 543 645L543 663C543 687 543 726 477 726Z"  horiz-adv-x="651" vert-adv-y="1000"  />

      
      <glyph glyph-name="uniec" unicode="&#xec;" d="M309 603L113 750L-27 750L-27 711C101 615 161 570 249 570L309 570ZM90 480L90 0L222 0L222 504L186 504Z"  horiz-adv-x="312" vert-adv-y="1000"  />

      
      <glyph glyph-name="unied" unicode="&#xed;" d="M3 570L63 570C151 570 211 615 339 711L339 750L199 750L3 603ZM90 480L90 0L222 0L222 504L186 504Z"  horiz-adv-x="312" vert-adv-y="1000"  />

      
      <glyph glyph-name="uniee" unicode="&#xee;" d="M90 480L90 0L222 0L222 504L186 504ZM377 603L181 750L129 750L-67 603L-67 570L-13 570C44 570 88 603 144 645L166 645C222 603 266 570 323 570L377 570Z"  horiz-adv-x="312" vert-adv-y="1000"  />

      
      <glyph glyph-name="unief" unicode="&#xef;" d="M6 726C-60 726-60 687-60 663L-60 645C-60 621-60 582 6 582L39 582C105 582 105 621 105 645L105 663C105 687 105 726 39 726ZM273 726C207 726 207 687 207 663L207 645C207 621 207 582 273 582L306 582C372 582 372 621 372 645L372 663C372 687 372 726 306 726ZM90 480L90 0L222 0L222 504L186 504Z"  horiz-adv-x="312" vert-adv-y="1000"  />

      
      <glyph glyph-name="unif0" unicode="&#xf0;" d="M176 463L404 520L497 396L479 382C449 415 373 432 315 432C66 432 66 306 66 222L66 198C66 117 66-12 321-12L369-12C630-12 630 138 630 240C630 348 597 461 529 551L607 571L586 657L478 630L419 708L289 708L289 673L346 597L154 549ZM339 327C486 327 486 327 486 210C486 96 486 96 345 96C204 96 204 96 204 210C204 327 204 327 339 327Z"  horiz-adv-x="702" vert-adv-y="1000"  />

      
      <glyph glyph-name="unif1" unicode="&#xf1;" d="M618 279C618 378 618 516 414 516C317 516 252 476 204 440L156 504L90 504L90 0L222 0L222 366L350 398C486 398 486 398 486 259L486 0L618 0ZM320 614C372 575 402 575 426 575C480 575 528 606 591 690L591 724L498 724L457 670L432 670L400 694C348 733 318 733 294 733C236 733 192 702 129 618L129 584L222 584L262 638L288 638Z"  horiz-adv-x="702" vert-adv-y="1000"  />

      
      <glyph glyph-name="unif2" unicode="&#xf2;" d="M204 252C204 402 204 402 345 402C486 402 486 402 486 252C486 102 486 102 345 102C204 102 204 102 204 252ZM66 228C66 144 66-12 321-12L369-12C624-12 624 144 624 228L624 276C624 360 624 516 369 516L321 516C66 516 66 360 66 276ZM502 603L306 750L166 750L166 711C294 615 354 570 442 570L502 570Z"  horiz-adv-x="690" vert-adv-y="1000"  />

      
      <glyph glyph-name="unif3" unicode="&#xf3;" d="M204 252C204 402 204 402 345 402C486 402 486 402 486 252C486 102 486 102 345 102C204 102 204 102 204 252ZM66 228C66 144 66-12 321-12L369-12C624-12 624 144 624 228L624 276C624 360 624 516 369 516L321 516C66 516 66 360 66 276ZM184 570L244 570C332 570 392 615 520 711L520 750L380 750L184 603Z"  horiz-adv-x="690" vert-adv-y="1000"  />

      
      <glyph glyph-name="unif4" unicode="&#xf4;" d="M204 252C204 402 204 402 345 402C486 402 486 402 486 252C486 102 486 102 345 102C204 102 204 102 204 252ZM66 228C66 144 66-12 321-12L369-12C624-12 624 144 624 228L624 276C624 360 624 516 369 516L321 516C66 516 66 360 66 276ZM565 603L369 750L317 750L121 603L121 570L175 570C232 570 276 603 332 645L354 645C410 603 454 570 511 570L565 570Z"  horiz-adv-x="690" vert-adv-y="1000"  />

      
      <glyph glyph-name="unif5" unicode="&#xf5;" d="M204 252C204 402 204 402 345 402C486 402 486 402 486 252C486 102 486 102 345 102C204 102 204 102 204 252ZM66 228C66 144 66-12 321-12L369-12C624-12 624 144 624 228L624 276C624 360 624 516 369 516L321 516C66 516 66 360 66 276ZM308 614C360 575 390 575 414 575C468 575 516 606 579 690L579 724L486 724L445 670L420 670L388 694C336 733 306 733 282 733C224 733 180 702 117 618L117 584L210 584L250 638L276 638Z"  horiz-adv-x="690" vert-adv-y="1000"  />

      
      <glyph glyph-name="unif6" unicode="&#xf6;" d="M204 252C204 402 204 402 345 402C486 402 486 402 486 252C486 102 486 102 345 102C204 102 204 102 204 252ZM66 228C66 144 66-12 321-12L369-12C624-12 624 144 624 228L624 276C624 360 624 516 369 516L321 516C66 516 66 360 66 276ZM195 726C129 726 129 687 129 663L129 645C129 621 129 582 195 582L228 582C294 582 294 621 294 645L294 663C294 687 294 726 228 726ZM462 726C396 726 396 687 396 663L396 645C396 621 396 582 462 582L495 582C561 582 561 621 561 645L561 663C561 687 561 726 495 726Z"  horiz-adv-x="690" vert-adv-y="1000"  />

      
      <glyph glyph-name="unif7" unicode="&#xf7;" d="M114 318L114 252L606 252L606 318ZM348 174C288 174 288 138 288 114L288 90C288 66 288 30 348 30L372 30C432 30 432 66 432 90L432 114C432 138 432 174 372 174ZM348 540C288 540 288 504 288 480L288 456C288 432 288 396 348 396L372 396C432 396 432 432 432 456L432 480C432 504 432 540 372 540Z"  horiz-adv-x="720" vert-adv-y="1000"  />

      
      <glyph glyph-name="unif8" unicode="&#xf8;" d="M195 252C195 408 195 408 345 408C389 408 417 408 429 402L324 297C297 270 267 240 213 168L195 168ZM141-18L180 21C224-12 303-12 336-12L369-12C624-12 624 144 624 228L624 264C624 306 624 360 579 420L615 456L549 522L510 483C466 516 387 516 354 516L321 516C66 516 66 360 66 276L66 240C66 198 66 144 111 84L75 48ZM495 252C495 96 495 96 345 96C301 96 273 96 261 102L366 207C393 234 423 264 477 336L495 336Z"  horiz-adv-x="689" vert-adv-y="1000"  />

      
      <glyph glyph-name="unif9" unicode="&#xf9;" d="M550-14L648 59C612 107 612 107 612 192L612 504L480 504L480 138L352 106C216 106 216 106 216 245L216 504L84 504L84 225C84 126 84-12 285-12C390-12 455 37 491 64ZM502 603L306 750L166 750L166 711C294 615 354 570 442 570L502 570Z"  horiz-adv-x="702" vert-adv-y="1000"  />

      
      <glyph glyph-name="unifa" unicode="&#xfa;" d="M550-14L648 59C612 107 612 107 612 192L612 504L480 504L480 138L352 106C216 106 216 106 216 245L216 504L84 504L84 225C84 126 84-12 285-12C390-12 455 37 491 64ZM196 570L256 570C344 570 404 615 532 711L532 750L392 750L196 603Z"  horiz-adv-x="702" vert-adv-y="1000"  />

      
      <glyph glyph-name="unifb" unicode="&#xfb;" d="M550-14L648 59C612 107 612 107 612 192L612 504L480 504L480 138L352 106C216 106 216 106 216 245L216 504L84 504L84 225C84 126 84-12 285-12C390-12 455 37 491 64ZM568 603L372 750L320 750L124 603L124 570L178 570C235 570 279 603 335 645L357 645C413 603 457 570 514 570L568 570Z"  horiz-adv-x="702" vert-adv-y="1000"  />

      
      <glyph glyph-name="unifc" unicode="&#xfc;" d="M550-14L648 59C612 107 612 107 612 192L612 504L480 504L480 138L352 106C216 106 216 106 216 245L216 504L84 504L84 225C84 126 84-12 285-12C390-12 455 37 491 64ZM201 726C135 726 135 687 135 663L135 645C135 621 135 582 201 582L234 582C300 582 300 621 300 645L300 663C300 687 300 726 234 726ZM468 726C402 726 402 687 402 663L402 645C402 621 402 582 468 582L501 582C567 582 567 621 567 645L567 663C567 687 567 726 501 726Z"  horiz-adv-x="702" vert-adv-y="1000"  />

      
      <glyph glyph-name="unifd" unicode="&#xfd;" d="M273 120C273 171 273 171 177 411L177 504L39 504C39 394 39 394 187 24L304 24L273-60C257-104 257-104 207-104L144-104L144-216L168-216C262-216 340-216 388-89L423 3C571 393 569 395 570 504L438 504L438 411C346 167 346 167 346 120ZM154 570L214 570C302 570 362 615 490 711L490 750L350 750L154 603Z"  horiz-adv-x="609" vert-adv-y="1000"  />

      
      <glyph glyph-name="unife" unicode="&#xfe;" d="M90 708L90-204L222-204L222 15C282 0 330-12 402-12C636-12 636 159 636 228L636 276C636 360 636 516 423 516C357 516 278 492 222 450L222 732L186 732ZM498 252C498 102 498 102 351 102C315 102 269 102 222 114L222 366L350 398L357 398C498 398 498 398 498 252Z"  horiz-adv-x="702" vert-adv-y="1000"  />

      
      <glyph glyph-name="uniff" unicode="&#xff;" d="M273 120C273 171 273 171 177 411L177 504L39 504C39 394 39 394 187 24L304 24L273-60C257-104 257-104 207-104L144-104L144-216L168-216C262-216 340-216 388-89L423 3C571 393 569 395 570 504L438 504L438 411C346 167 346 167 346 120ZM156 726C90 726 90 687 90 663L90 645C90 621 90 582 156 582L189 582C255 582 255 621 255 645L255 663C255 687 255 726 189 726ZM423 726C357 726 357 687 357 663L357 645C357 621 357 582 423 582L456 582C522 582 522 621 522 645L522 663C522 687 522 726 456 726Z"  horiz-adv-x="609" vert-adv-y="1000"  />

      
      <glyph glyph-name="uni0131" unicode="&#x0131;" d="M90 480L90 0L222 0L222 504L186 504Z"  horiz-adv-x="312" vert-adv-y="1000"  />

      
      <glyph glyph-name="uni0141" unicode="&#x0141;" d="M73 187L120 222L120 0L630 0L630 126L264 126L264 330L449 469L387 551L264 458L264 708L120 708L120 350L11 269Z"  horiz-adv-x="651" vert-adv-y="1000"  />

      
      <glyph glyph-name="uni0142" unicode="&#x0142;" d="M104 708L104 337L9 267L62 197L104 228L104 184C104 82 104 81 174-14L272 59C236 109 236 109 236 184L236 326L357 417L304 487L236 436L236 732L200 732Z"  horiz-adv-x="350" vert-adv-y="1000"  />

      
      <glyph glyph-name="uni0152" unicode="&#x0152;" d="M387 726C75 726 75 504 75 384L75 324C75 204 75-18 387-18L429-18C493-18 538-6 561 0L1134 0L1134 126L717 126L717 150C741 182 741 275 741 291L1065 291L1065 417L741 417C741 444 741 526 717 558L717 582L1134 582L1134 708L561 708C538 714 493 726 429 726ZM408 588C585 588 585 588 585 366L585 342C585 120 585 120 408 120C231 120 231 120 231 342L231 366C231 588 231 588 408 588Z"  horiz-adv-x="1203" vert-adv-y="1000"  />

      
      <glyph glyph-name="uni0153" unicode="&#x0153;" d="M582 213L678 213C822 213 843 213 894 225L930 234L930 277C930 360 930 516 702 516L690 516C657 516 569 516 517 466L496 466C445 516 354 516 321 516L309 516C66 516 66 360 66 276L66 228C66 144 66-12 309-12L321-12C353-12 445-12 496 38L517 38C569-12 660-12 696-12C723-12 798-12 894 12L894 120L867 120L771 96L690 96C582 96 582 96 582 213ZM321 408C438 408 438 408 438 252C438 96 438 96 321 96C204 96 204 96 204 252C204 408 204 408 321 408ZM582 291C582 411 582 411 687 411C792 411 792 411 792 291Z"  horiz-adv-x="990" vert-adv-y="1000"  />

      
      <glyph glyph-name="uni0160" unicode="&#x0160;" d="M288 451C222 467 222 467 222 520C222 589 222 589 312 589L471 589L615 553L657 553L657 688C505 726 429 726 372 726C66 726 66 579 66 507C66 357 180 329 300 299L468 257C534 240 534 240 534 188C534 119 534 119 444 119L291 119L147 155L105 155L105 20C257-18 327-18 384-18C690-18 690 129 690 201C690 350 576 379 456 409ZM165 915L361 768L413 768L609 915L609 948L555 948C498 948 454 915 398 873L376 873C320 915 276 948 219 948L165 948Z"  horiz-adv-x="756" vert-adv-y="1000"  />

      
      <glyph glyph-name="uni0161" unicode="&#x0161;" d="M351 179C402 166 402 166 402 141C402 96 402 96 333 96L207 96L111 120L84 120L84 13C180-11 240-12 288-12C531-12 531 97 531 148C531 253 431 276 359 294L237 325C186 338 186 338 186 363C186 408 186 408 255 408L381 408L477 384L504 384L504 492C408 516 348 516 300 516C57 516 57 408 57 357C57 252 157 228 229 210ZM69 717L265 570L317 570L513 717L513 750L459 750C402 750 358 717 302 675L280 675C224 717 180 750 123 750L69 750Z"  horiz-adv-x="588" vert-adv-y="1000"  />

      
      <glyph glyph-name="uni0178" unicode="&#x0178;" d="M753 660L753 708L597 708C480 552 423 476 423 417L345 417C345 476 288 552 171 708L15 708L15 660L312 264L312 0L456 0L456 264ZM234 924C168 924 168 885 168 861L168 843C168 819 168 780 234 780L267 780C333 780 333 819 333 843L333 861C333 885 333 924 267 924ZM501 924C435 924 435 885 435 861L435 843C435 819 435 780 501 780L534 780C600 780 600 819 600 843L600 861C600 885 600 924 534 924Z"  horiz-adv-x="768" vert-adv-y="1000"  />

      
      <glyph glyph-name="uni017D" unicode="&#x017D;" d="M678 708L72 708L72 570L114 570C246 570 379 570 495 594L504 558L72 177L72 0L678 0L678 138L636 138C504 138 371 138 255 114L246 150L678 531ZM153 915L349 768L401 768L597 915L597 948L543 948C486 948 442 915 386 873L364 873C308 915 264 948 207 948L153 948Z"  horiz-adv-x="750" vert-adv-y="1000"  />

      
      <glyph glyph-name="uni017E" unicode="&#x017E;" d="M519 504L63 504L63 390L96 390C174 390 260 390 356 414L362 390L63 127L63 0L519 0L519 114L486 114C408 114 322 114 226 90L220 114L519 376ZM69 717L265 570L317 570L513 717L513 750L459 750C402 750 358 717 302 675L280 675C224 717 180 750 123 750L69 750Z"  horiz-adv-x="582" vert-adv-y="1000"  />

      
      <glyph glyph-name="uni0192" unicode="&#x0192;" d="M564 297C564 468 420 468 369 468L351 468C300 468 156 468 156 297L156 279C156 108 300 108 351 108L369 108C420 108 564 108 564 279Z"  horiz-adv-x="720" vert-adv-y="1000"  />

      
      <glyph glyph-name="uni02C6" unicode="&#x02C6;" d="M474 603L278 750L226 750L30 603L30 570L84 570C141 570 185 603 241 645L263 645C319 603 363 570 420 570L474 570Z"  horiz-adv-x="504" vert-adv-y="1000"  />

      
      <glyph glyph-name="uni02C7" unicode="&#x02C7;" d="M30 717L226 570L278 570L474 717L474 750L420 750C363 750 319 717 263 675L241 675C185 717 141 750 84 750L30 750Z"  horiz-adv-x="504" vert-adv-y="1000"  />

      
      <glyph glyph-name="uni02C9" unicode="&#x02C9;" d="M21 720L21 616L399 616L399 720Z"  horiz-adv-x="420" vert-adv-y="1000"  />

      
      <glyph glyph-name="uni02D8" unicode="&#x02D8;" d="M193 671C136 671 136 671 106 711L30 654C97 564 145 564 217 564L253 564C325 564 373 564 441 653L365 711C335 671 335 671 278 671Z"  horiz-adv-x="471" vert-adv-y="1000"  />

      
      <glyph glyph-name="uni02D9" unicode="&#x02D9;" d="M96 726C30 726 30 687 30 663L30 645C30 621 30 582 96 582L138 582C204 582 204 621 204 645L204 663C204 687 204 726 138 726Z"  horiz-adv-x="234" vert-adv-y="1000"  />

      
      <glyph glyph-name="uni02DA" unicode="&#x02DA;" d="M171 777C30 777 30 714 30 687L30 657C30 630 30 567 171 567L207 567C348 567 348 630 348 657L348 687C348 714 348 777 207 777ZM210 711C249 711 249 711 249 678L249 666C249 633 249 633 210 633L168 633C129 633 129 633 129 666L129 678C129 711 129 711 168 711Z"  horiz-adv-x="378" vert-adv-y="1000"  />

      
      <glyph glyph-name="uni02DB" unicode="&#x02DB;" d="M291-138L264-138L192-156L162-156C134-156 134-156 134-135C134-122 134-122 169-96L237-45L237 24L149 24L149-5L139-12C59-72 27-96 27-145C27-168 28-228 147-228C171-228 219-228 291-210Z"  horiz-adv-x="318" vert-adv-y="1000"  />

      
      <glyph glyph-name="uni02DC" unicode="&#x02DC;" d="M221 614C273 575 303 575 327 575C381 575 429 606 492 690L492 724L399 724L358 670L333 670L301 694C249 733 219 733 195 733C137 733 93 702 30 618L30 584L123 584L163 638L189 638Z"  horiz-adv-x="522" vert-adv-y="1000"  />

      
      <glyph glyph-name="uni02DD" unicode="&#x02DD;" d="M30 570L72 570C151 570 192 624 258 712L258 750L135 750L30 610ZM297 570L339 570C418 570 459 624 525 712L525 750L402 750L297 610Z"  horiz-adv-x="549" vert-adv-y="1000"  />

      
      <glyph glyph-name="uni0394" unicode="&#x0394;" d="M564 297C564 468 420 468 369 468L351 468C300 468 156 468 156 297L156 279C156 108 300 108 351 108L369 108C420 108 564 108 564 279Z"  horiz-adv-x="720" vert-adv-y="1000"  />

      
      <glyph glyph-name="uni03A9" unicode="&#x03A9;" d="M564 297C564 468 420 468 369 468L351 468C300 468 156 468 156 297L156 279C156 108 300 108 351 108L369 108C420 108 564 108 564 279Z"  horiz-adv-x="720" vert-adv-y="1000"  />

      
      <glyph glyph-name="uni03BC" unicode="&#x03BC;" d="M564 297C564 468 420 468 369 468L351 468C300 468 156 468 156 297L156 279C156 108 300 108 351 108L369 108C420 108 564 108 564 279Z"  horiz-adv-x="720" vert-adv-y="1000"  />

      
      <glyph glyph-name="uni03C0" unicode="&#x03C0;" d="M564 297C564 468 420 468 369 468L351 468C300 468 156 468 156 297L156 279C156 108 300 108 351 108L369 108C420 108 564 108 564 279Z"  horiz-adv-x="720" vert-adv-y="1000"  />

      
      <glyph glyph-name="uni0401" unicode="&#x0401;" d="M105 0L663 0L663 126L249 126L249 291L594 291L594 417L249 417L249 582L663 582L663 708L105 708ZM220 924C154 924 154 885 154 861L154 843C154 819 154 780 220 780L253 780C319 780 319 819 319 843L319 861C319 885 319 924 253 924ZM487 924C421 924 421 885 421 861L421 843C421 819 421 780 487 780L520 780C586 780 586 819 586 843L586 861C586 885 586 924 520 924Z"  horiz-adv-x="732" vert-adv-y="1000"  />

      
      <glyph glyph-name="uni0402" unicode="&#x0402;" d="M696-18C915-18 915 138 915 213L915 228C915 300 915 459 663 459C588 459 525 444 429 420L429 582L693 582L693 708L21 708L21 582L285 582L285 0L429 0L429 294L573 330L607 330C759 330 759 330 759 225L759 210C759 110 759 110 672 110L663 110L567 134L525 134L525 8C629-18 672-18 696-18Z"  horiz-adv-x="972" vert-adv-y="1000"  />

      
      <glyph glyph-name="uni0403" unicode="&#x0403;" d="M204 768L264 768C352 768 412 813 540 909L540 948L400 948L204 801ZM105 0L249 0L249 582L615 582L615 708L105 708Z"  horiz-adv-x="636" vert-adv-y="1000"  />

      
      <glyph glyph-name="uni0404" unicode="&#x0404;" d="M483 417L234 417C234 589 234 589 411 589C550 589 550 589 584 453L726 488C726 549 726 726 432 726L390 726C75 726 75 504 75 384L75 324C75 186 75-18 411-18C471-18 553-18 705 20L705 155L663 155L519 119L453 119C234 119 234 119 234 291L483 291Z"  horiz-adv-x="783" vert-adv-y="1000"  />

      
      <glyph glyph-name="uni0405" unicode="&#x0405;" d="M287 451C221 467 221 467 221 520C221 589 221 589 311 589L470 589L614 553L656 553L656 688C504 726 428 726 371 726C65 726 65 579 65 507C65 357 179 329 299 299L467 257C533 240 533 240 533 188C533 119 533 119 443 119L290 119L146 155L104 155L104 20C256-18 326-18 383-18C689-18 689 129 689 201C689 350 575 379 455 409Z"  horiz-adv-x="756" vert-adv-y="1000"  />

      
      <glyph glyph-name="uni0406" unicode="&#x0406;" d="M249 0L249 708L105 708L105 0Z"  horiz-adv-x="354" vert-adv-y="1000"  />

      
      <glyph glyph-name="uni0407" unicode="&#x0407;" d="M249 0L249 708L105 708L105 0ZM27 924C-39 924-39 885-39 861L-39 843C-39 819-39 780 27 780L60 780C126 780 126 819 126 843L126 861C126 885 126 924 60 924ZM294 924C228 924 228 885 228 861L228 843C228 819 228 780 294 780L327 780C393 780 393 819 393 843L393 861C393 885 393 924 327 924Z"  horiz-adv-x="354" vert-adv-y="1000"  />

      
      <glyph glyph-name="uni0408" unicode="&#x0408;" d="M281-18C536-18 537 150 537 252L537 708L393 708L393 228C393 116 393 116 281 116C198 116 198 116 175 208L27 171C27 138 27-18 281-18Z"  horiz-adv-x="636" vert-adv-y="1000"  />

      
      <glyph glyph-name="uni0409" unicode="&#x0409;" d="M753 0C930 0 1083 0 1083 207C1083 417 924 417 747 417L678 417L678 708L207 708C207 636 207 284 30 48L30 0L183 0C321 184 327 450 327 582L534 582L534 0ZM678 291L825 291C930 291 930 291 930 207C930 126 930 126 825 126L678 126Z"  horiz-adv-x="1140" vert-adv-y="1000"  />

      
      <glyph glyph-name="uni040A" unicode="&#x040A;" d="M528 708L528 417L249 417L249 708L105 708L105 0L249 0L249 291L528 291L528 0L747 0C924 0 1077 0 1077 207C1077 417 924 417 747 417L672 417L672 708ZM672 291L819 291C924 291 924 291 924 207C924 126 924 126 819 126L672 126Z"  horiz-adv-x="1134" vert-adv-y="1000"  />

      
      <glyph glyph-name="uni040B" unicode="&#x040B;" d="M21 708L21 582L285 582L285 0L429 0L429 294L573 330L597 330C759 330 759 330 759 168L759 0L903 0L903 168C903 312 903 459 657 459C585 459 525 444 429 420L429 582L693 582L693 708Z"  horiz-adv-x="975" vert-adv-y="1000"  />

      
      <glyph glyph-name="uni040C" unicode="&#x040C;" d="M756 660L756 708L600 708C483 552 426 476 426 417L249 417L249 708L105 708L105 0L249 0L249 291L426 291C426 232 483 156 600 0L756 0L756 48L525 354ZM267 768L327 768C415 768 475 813 603 909L603 948L463 948L267 801Z"  horiz-adv-x="801" vert-adv-y="1000"  />

      
      <glyph glyph-name="uni040E" unicode="&#x040E;" d="M337 869C280 869 280 869 250 909L174 852C241 762 289 762 361 762L397 762C469 762 517 762 585 851L509 909C479 869 479 869 422 869ZM211 279L390 279L340 180C313 126 313 126 253 126L208 126L208 0L218 0C322 0 408 0 492 168L738 660L738 708L592 708C493 510 470 465 470 405L288 405C288 465 266 510 167 708L21 708L21 660Z"  horiz-adv-x="753" vert-adv-y="1000"  />

      
      <glyph glyph-name="uni040F" unicode="&#x040F;" d="M367-24L348-102L348-144L468-144C501-100 501-66 501 0L741 0L741 708L597 708L597 126L249 126L249 708L105 708L105 0L367 0Z"  horiz-adv-x="846" vert-adv-y="1000"  />

      
      <glyph glyph-name="uni0410" unicode="&#x0410;" d="M285 708L21 48L21 0L160 0L226 165L596 165L662 0L801 0L801 48L537 708ZM361 576L461 576C461 510 485 450 551 285L271 285C337 450 361 510 361 576Z"  horiz-adv-x="824" vert-adv-y="1000"  />

      
      <glyph glyph-name="uni0411" unicode="&#x0411;" d="M249 291L480 291C567 291 567 291 567 208C567 126 567 126 480 126L249 126ZM105 0L417 0C567 0 720 0 720 209C720 417 567 417 417 417L249 417L249 582L657 582L657 708L105 708Z"  horiz-adv-x="783" vert-adv-y="1000"  />

      
      <glyph glyph-name="uni0412" unicode="&#x0412;" d="M483 291C570 291 570 291 570 208C570 126 570 126 483 126L249 126L249 291ZM483 582C570 582 570 582 570 499C570 417 570 417 483 417L249 417L249 582ZM628 365C732 391 732 492 732 519C732 708 573 708 414 708L105 708L105 0L414 0C573 0 732 0 732 189C732 216 732 317 628 343Z"  horiz-adv-x="810" vert-adv-y="1000"  />

      
      <glyph glyph-name="uni0413" unicode="&#x0413;" d="M105 0L249 0L249 582L615 582L615 708L105 708Z"  horiz-adv-x="636" vert-adv-y="1000"  />

      
      <glyph glyph-name="uni0414" unicode="&#x0414;" d="M21-144L147-144L147 0L669 0L644-102L644-144L771-144C771-123 771-104 816 76L816 126L732 126L732 708L210 708C210 546 210 294 84 126L21 126ZM330 582L588 582L588 126L246 126C330 294 330 492 330 582Z"  horiz-adv-x="858" vert-adv-y="1000"  />

      
      <glyph glyph-name="uni0415" unicode="&#x0415;" d="M105 0L663 0L663 126L249 126L249 291L594 291L594 417L249 417L249 582L663 582L663 708L105 708Z"  horiz-adv-x="732" vert-adv-y="1000"  />

      
      <glyph glyph-name="uni0416" unicode="&#x0416;" d="M648 291L777 291C777 232 834 156 951 0L1107 0L1107 48L877 354L1107 660L1107 708L951 708C834 552 777 476 777 417L648 417L648 708L504 708L504 417L375 417C375 476 318 552 201 708L45 708L45 660L275 354L45 48L45 0L201 0C318 156 375 232 375 291L504 291L504 0L648 0Z"  horiz-adv-x="1152" vert-adv-y="1000"  />

      
      <glyph glyph-name="uni0417" unicode="&#x0417;" d="M353-18C672-18 672 123 672 183C672 222 672 317 568 343L568 365C672 391 672 486 672 525C672 583 672 726 353 726C291 726 209 726 57 688L57 553L99 553L243 589L414 589C510 589 510 589 510 503C510 417 510 417 420 417L243 417L243 291L420 291C510 291 510 291 510 205C510 119 510 119 414 119L243 119L99 155L57 155L57 20C209-18 291-18 353-18Z"  horiz-adv-x="750" vert-adv-y="1000"  />

      
      <glyph glyph-name="uni0418" unicode="&#x0418;" d="M249 192L249 708L105 708L105 0L283 0C536 379 578 442 578 516L621 516L621 0L765 0L765 708L587 708C334 325 292 262 292 192Z"  horiz-adv-x="870" vert-adv-y="1000"  />

      
      <glyph glyph-name="uni0419" unicode="&#x0419;" d="M392 869C335 869 335 869 305 909L229 852C296 762 344 762 416 762L452 762C524 762 572 762 640 851L564 909C534 869 534 869 477 869ZM249 192L249 708L105 708L105 0L283 0C536 379 578 442 578 516L621 516L621 0L765 0L765 708L587 708C334 325 292 262 292 192Z"  horiz-adv-x="870" vert-adv-y="1000"  />

      
      <glyph glyph-name="uni041A" unicode="&#x041A;" d="M756 660L756 708L600 708C483 552 426 476 426 417L249 417L249 708L105 708L105 0L249 0L249 291L426 291C426 232 483 156 600 0L756 0L756 48L525 354Z"  horiz-adv-x="801" vert-adv-y="1000"  />

      
      <glyph glyph-name="uni041B" unicode="&#x041B;" d="M732 708L207 708C207 636 207 284 30 48L30 0L183 0C321 184 327 450 327 582L588 582L588 0L732 0Z"  horiz-adv-x="837" vert-adv-y="1000"  />

      
      <glyph glyph-name="uni041C" unicode="&#x041C;" d="M105 708L105 0L246 0L246 576L291 576C291 496 291 496 477 0L633 0C819 496 819 496 819 576L864 576L864 0L1005 0L1005 708L751 708C576 240 576 240 576 162L534 162C534 240 534 240 358 708Z"  horiz-adv-x="1110" vert-adv-y="1000"  />

      
      <glyph glyph-name="uni041D" unicode="&#x041D;" d="M597 417L249 417L249 708L105 708L105 0L249 0L249 291L597 291L597 0L741 0L741 708L597 708Z"  horiz-adv-x="846" vert-adv-y="1000"  />

      
      <glyph glyph-name="uni041E" unicode="&#x041E;" d="M441 588C650 588 651 588 651 366L651 342C651 121 651 120 441 120C232 120 231 120 231 342L231 366C231 587 231 588 441 588ZM405 726C75 726 75 504 75 384L75 324C75 204 75-18 405-18L477-18C807-18 807 204 807 324L807 384C807 504 807 726 477 726Z"  horiz-adv-x="882" vert-adv-y="1000"  />

      
      <glyph glyph-name="uni041F" unicode="&#x041F;" d="M105 708L105 0L249 0L249 582L597 582L597 0L741 0L741 708Z"  horiz-adv-x="846" vert-adv-y="1000"  />

      
      <glyph glyph-name="uni0420" unicode="&#x0420;" d="M249 582L444 582C579 582 579 582 579 451C579 321 579 321 444 321L249 321ZM105 0L249 0L249 195L372 195C579 195 732 195 732 451C732 708 579 708 372 708L105 708Z"  horiz-adv-x="789" vert-adv-y="1000"  />

      
      <glyph glyph-name="uni0421" unicode="&#x0421;" d="M726 488C726 549 726 726 432 726L390 726C75 726 75 504 75 384L75 324C75 186 75-18 411-18C471-18 553-18 705 20L705 155L663 155L519 119L453 119C231 119 231 119 231 336L231 372C231 589 231 589 411 589C550 589 550 589 584 453Z"  horiz-adv-x="783" vert-adv-y="1000"  />

      
      <glyph glyph-name="uni0422" unicode="&#x0422;" d="M21 708L21 582L285 582L285 0L429 0L429 582L693 582L693 708Z"  horiz-adv-x="714" vert-adv-y="1000"  />

      
      <glyph glyph-name="uni0423" unicode="&#x0423;" d="M211 279L390 279L340 180C313 126 313 126 253 126L208 126L208 0L218 0C322 0 408 0 492 168L738 660L738 708L592 708C493 510 470 465 470 405L288 405C288 465 266 510 167 708L21 708L21 660Z"  horiz-adv-x="753" vert-adv-y="1000"  />

      
      <glyph glyph-name="uni0424" unicode="&#x0424;" d="M480 66L480 0L624 0L624 66L678 66C882 66 1035 66 1035 354C1035 642 882 642 678 642L624 642L624 708L480 708L480 642L426 642C222 642 69 642 69 354C69 66 222 66 426 66ZM720 516C882 516 882 516 882 360L882 348C882 192 882 192 720 192L624 192L624 516ZM480 516L480 192L384 192C222 192 222 192 222 348L222 360C222 516 222 516 384 516Z"  horiz-adv-x="1104" vert-adv-y="1000"  />

      
      <glyph glyph-name="uni0425" unicode="&#x0425;" d="M45 48L45 0L201 0C318 156 375 232 375 291L453 291C453 232 510 156 627 0L783 0L783 48L552 354L783 660L783 708L627 708C510 552 453 476 453 417L375 417C375 476 318 552 201 708L45 708L45 660L275 354Z"  horiz-adv-x="828" vert-adv-y="1000"  />

      
      <glyph glyph-name="uni0426" unicode="&#x0426;" d="M249 126L249 708L105 708L105 0L678 0L653-102L653-144L780-144C780-123 780-104 825 76L825 126L741 126L741 708L597 708L597 126Z"  horiz-adv-x="867" vert-adv-y="1000"  />

      
      <glyph glyph-name="uni0427" unicode="&#x0427;" d="M546 708L546 357L402 321L378 321C216 321 216 321 216 483L216 708L72 708L72 483C72 339 72 192 318 192C390 192 450 207 546 231L546 0L690 0L690 708Z"  horiz-adv-x="795" vert-adv-y="1000"  />

      
      <glyph glyph-name="uni0428" unicode="&#x0428;" d="M249 708L105 708L105 0L1089 0L1089 708L945 708L945 126L669 126L669 708L525 708L525 126L249 126Z"  horiz-adv-x="1194" vert-adv-y="1000"  />

      
      <glyph glyph-name="uni0429" unicode="&#x0429;" d="M249 126L249 708L105 708L105 0L1026 0L1001-102L1001-144L1128-144C1128-123 1128-104 1173 75L1173 126L1089 126L1089 708L945 708L945 126L669 126L669 708L525 708L525 126Z"  horiz-adv-x="1215" vert-adv-y="1000"  />

      
      <glyph glyph-name="uni042A" unicode="&#x042A;" d="M12 582L144 582L144 0L387 0C591 0 744 0 744 245C744 489 591 489 387 489L288 489L288 708L12 708ZM288 363L459 363C591 363 591 363 591 245C591 126 591 126 459 126L288 126Z"  horiz-adv-x="801" vert-adv-y="1000"  />

      
      <glyph glyph-name="uni042B" unicode="&#x042B;" d="M249 363L420 363C552 363 552 363 552 245C552 126 552 126 420 126L249 126ZM105 0L354 0C552 0 705 0 705 245C705 489 552 489 354 489L249 489L249 708L105 708ZM810 0L954 0L954 708L810 708Z"  horiz-adv-x="1059" vert-adv-y="1000"  />

      
      <glyph glyph-name="uni042C" unicode="&#x042C;" d="M249 363L444 363C576 363 576 363 576 245C576 126 576 126 444 126L249 126ZM105 0L378 0C576 0 729 0 729 245C729 489 576 489 378 489L249 489L249 708L105 708Z"  horiz-adv-x="786" vert-adv-y="1000"  />

      
      <glyph glyph-name="uni042D" unicode="&#x042D;" d="M99 155L57 155L57 20C209-18 291-18 351-18C687-18 687 162 687 315L687 393C687 546 687 726 351 726C291 726 209 726 57 688L57 553L99 553L243 589L351 589C531 589 531 589 531 417L243 417L243 291L531 291C531 119 531 119 398 119L246 119Z"  horiz-adv-x="762" vert-adv-y="1000"  />

      
      <glyph glyph-name="uni042E" unicode="&#x042E;" d="M105 708L105 0L249 0L249 291L432 291C432 204 432-18 747-18L819-18C1137-18 1137 204 1137 324L1137 384C1137 504 1137 726 819 726L747 726C432 726 432 504 432 417L249 417L249 708ZM585 366C585 588 585 588 783 588C981 588 981 588 981 366L981 342C981 120 981 120 783 120C585 120 585 120 585 342Z"  horiz-adv-x="1212" vert-adv-y="1000"  />

      
      <glyph glyph-name="uni042F" unicode="&#x042F;" d="M567 345L362 345C240 345 239 345 239 463C239 581 239 582 362 582L567 582ZM69 48L69 0L225 0C288 84 329 139 329 219L567 219L567 0L711 0L711 708L446 708C240 708 83 708 83 471C83 336 131 304 215 242Z"  horiz-adv-x="816" vert-adv-y="1000"  />

      
      <glyph glyph-name="uni0430" unicode="&#x0430;" d="M452 64L511-14L609 59C573 107 573 107 573 199L573 288C573 378 573 516 324 516C285 516 198 516 102 492L102 384L129 384L225 408L324 408C441 408 441 408 441 297L324 297C57 297 57 207 57 132C57 87 57-12 234-12C351-12 412 34 452 64ZM201 147C201 213 201 213 324 213L441 213L441 129L297 93L264 93C201 93 201 93 201 147Z"  horiz-adv-x="657" vert-adv-y="1000"  />

      
      <glyph glyph-name="uni0431" unicode="&#x0431;" d="M321 517L441 547C489 559 549 574 567 645L576 681L468 708C459 678 460 678 417 667L291 635C78 582 78 444 78 288L78 264C78 114 78-12 339-12L387-12C642-12 642 117 642 198L642 222C642 303 642 432 411 432C269 432 225 400 202 378L181 384C206 486 207 487 321 517ZM363 324C503 324 504 324 504 210C504 97 504 96 359 96C223 96 222 96 222 210C222 323 222 324 363 324Z"  horiz-adv-x="702" vert-adv-y="1000"  />

      
      <glyph glyph-name="uni0432" unicode="&#x0432;" d="M90 0L339 0C459 0 594 0 594 126C594 162 594 219 492 244L492 259C594 285 594 342 594 378C594 504 459 504 339 504L90 504ZM369 213C450 213 450 213 450 154C450 96 450 96 369 96L222 96L222 213ZM369 408C450 408 450 408 450 349C450 291 450 291 369 291L222 291L222 408Z"  horiz-adv-x="660" vert-adv-y="1000"  />

      
      <glyph glyph-name="uni0433" unicode="&#x0433;" d="M229 286C155 267 55 244 55 141C55 90 55-12 282-12C348-12 408-12 504 12L504 120L477 120L381 96L258 96C196 96 195 96 195 141C195 175 195 176 245 189L359 218C433 237 533 260 533 363C533 414 533 516 306 516C240 516 180 516 84 492L84 384L111 384L207 408L330 408C392 408 393 408 393 363C393 329 393 328 343 315Z"  horiz-adv-x="588" vert-adv-y="1000"  />

      
      <glyph glyph-name="uni0434" unicode="&#x0434;" d="M480 96L480 54C480-102 480-102 318-102L249-102L153-78L126-78L126-192C222-216 300-216 330-216C612-216 612-78 612 36L612 504L569 504L505 456C460 516 357 516 312 516C66 516 66 351 66 282L66 264C66 180 66 36 273 36C347 36 424 54 480 96ZM204 270C204 402 204 402 366 402C396 402 432 402 480 390L480 174L352 142C204 142 204 142 204 270Z"  horiz-adv-x="702" vert-adv-y="1000"  />

      
      <glyph glyph-name="uni0435" unicode="&#x0435;" d="M204 207L327 207C471 207 501 207 552 219L588 228L588 277C588 360 588 516 351 516L303 516C66 516 66 360 66 276L66 228C66 138 66-12 327-12C366-12 456-12 552 12L552 120L525 120L429 96L327 96C204 96 204 96 204 207ZM204 291C204 411 204 411 327 411C450 411 450 411 450 291Z"  horiz-adv-x="651" vert-adv-y="1000"  />

      
      <glyph glyph-name="uni0436" unicode="&#x0436;" d="M199 240L48 38L48 0L189 0C258 92 294 140 294 195L432 195L432 0L564 0L564 195L702 195C702 140 738 92 807 0L948 0L948 38L796 240C924 336 924 336 924 462L924 504L780 504L780 462C780 309 780 309 630 309L564 309L564 504L432 504L432 309L366 309C216 309 216 309 216 462L216 504L72 504L72 462C72 336 72 336 199 240Z"  horiz-adv-x="996" vert-adv-y="1000"  />

      
      <glyph glyph-name="uni0437" unicode="&#x0437;" d="M414 244L414 259C516 285 516 348 516 372C516 420 516 516 273 516C237 516 153 516 57 492L57 384L84 384L180 408L291 408C372 408 372 408 372 352C372 297 372 297 291 297L180 297L180 207L291 207C372 207 372 207 372 152C372 96 372 96 291 96L180 96L84 120L57 120L57 12C153-12 237-12 273-12C515-12 516 84 516 132C516 156 516 219 414 244Z"  horiz-adv-x="582" vert-adv-y="1000"  />

      
      <glyph glyph-name="uni0438" unicode="&#x0438;" d="M550-14L648 59C612 107 612 107 612 192L612 504L480 504L480 138L352 106C216 106 216 106 216 245L216 504L84 504L84 225C84 126 84-12 285-12C390-12 455 37 491 64Z"  horiz-adv-x="702" vert-adv-y="1000"  />

      
      <glyph glyph-name="uni0439" unicode="&#x0439;" d="M550-14L648 59C612 107 612 107 612 192L612 504L480 504L480 138L352 106C216 106 216 106 216 245L216 504L84 504L84 225C84 126 84-12 285-12C390-12 455 37 491 64ZM307 671C250 671 250 671 220 711L144 654C211 564 259 564 331 564L367 564C439 564 487 564 555 653L479 711C449 671 449 671 392 671Z"  horiz-adv-x="702" vert-adv-y="1000"  />

      
      <glyph glyph-name="uni043A" unicode="&#x043A;" d="M90 504L90 0L222 0L222 195L384 195C384 140 420 92 489 0L630 0L630 38L478 240C606 336 606 336 606 462L606 504L462 504L462 462C462 309 462 309 312 309L222 309L222 504Z"  horiz-adv-x="678" vert-adv-y="1000"  />

      
      <glyph glyph-name="uni043B" unicode="&#x043B;" d="M150 504C150 428 144 199 24 39L24 0L171 0C258 117 258 269 258 393L465 393L465 0L597 0L597 504Z"  horiz-adv-x="687" vert-adv-y="1000"  />

      
      <glyph glyph-name="uni043C" unicode="&#x043C;" d="M324 504L90 504L90 0L222 0L222 399L258 399C258 360 258 360 402 0L540 0C684 360 684 360 684 402L720 402L720 0L852 0L852 504L618 504C488 186 488 186 488 129L454 129C454 186 454 186 324 504Z"  horiz-adv-x="942" vert-adv-y="1000"  />

      
      <glyph glyph-name="uni043D" unicode="&#x043D;" d="M486 504L486 309L222 309L222 504L90 504L90 0L222 0L222 195L486 195L486 0L618 0L618 504Z"  horiz-adv-x="708" vert-adv-y="1000"  />

      
      <glyph glyph-name="uni043E" unicode="&#x043E;" d="M204 252C204 402 204 402 345 402C486 402 486 402 486 252C486 102 486 102 345 102C204 102 204 102 204 252ZM66 228C66 144 66-12 321-12L369-12C624-12 624 144 624 228L624 276C624 360 624 516 369 516L321 516C66 516 66 360 66 276Z"  horiz-adv-x="690" vert-adv-y="1000"  />

      
      <glyph glyph-name="uni043F" unicode="&#x043F;" d="M618 279C618 378 618 516 414 516C317 516 252 476 204 440L156 504L90 504L90 0L222 0L222 366L350 398C486 398 486 398 486 259L486 0L618 0Z"  horiz-adv-x="702" vert-adv-y="1000"  />

      
      <glyph glyph-name="uni0440" unicode="&#x0440;" d="M90 504L90-204L222-204L222 15C282 0 330-12 402-12C636-12 636 159 636 228L636 276C636 360 636 516 417 516C305 516 240 467 204 440L156 504ZM498 252C498 102 498 102 351 102C315 102 269 102 222 114L222 366L350 398L357 398C498 398 498 398 498 252Z"  horiz-adv-x="702" vert-adv-y="1000"  />

      
      <glyph glyph-name="uni0441" unicode="&#x0441;" d="M327-12C363-12 456-12 552 12L552 120L525 120L428 96L371 96C204 96 204 96 204 252C204 408 204 408 327 408C431 408 431 408 456 309L576 339C576 387 576 516 351 516L303 516C66 516 66 366 66 276L66 228C66 138 66-12 327-12Z"  horiz-adv-x="627" vert-adv-y="1000"  />

      
      <glyph glyph-name="uni0442" unicode="&#x0442;" d="M942 315C942 378 942 516 756 516C666 516 601 470 561 440C540 470 503 516 399 516C309 516 244 470 204 440L156 504L90 504L90 0L222 0L222 366L350 398C450 398 450 398 450 301L450 0L582 0L582 366L710 398C810 398 810 398 810 301L810 0L942 0Z"  horiz-adv-x="1026" vert-adv-y="1000"  />

      
      <glyph glyph-name="uni0443" unicode="&#x0443;" d="M273 120C273 171 273 171 177 411L177 504L39 504C39 394 39 394 187 24L304 24L273-60C257-104 257-104 207-104L144-104L144-216L168-216C262-216 340-216 388-89L423 3C571 393 569 395 570 504L438 504L438 411C346 167 346 167 346 120Z"  horiz-adv-x="609" vert-adv-y="1000"  />

      
      <glyph glyph-name="uni0444" unicode="&#x0444;" d="M444-204L576-204L576 42C624 6 691-12 747-12C952-12 954 156 954 228L954 276C954 345 954 516 747 516C691 516 624 498 576 462L576 732L540 732L444 708L444 462C396 498 329 516 273 516C66 516 66 345 66 276L66 228C66 159 66-12 273-12C329-12 396 6 444 42ZM816 252C816 106 816 106 672 106L576 130L576 374L672 398C816 398 816 398 816 252ZM204 252C204 398 204 398 348 398L444 374L444 130L348 106C204 106 204 106 204 252Z"  horiz-adv-x="1020" vert-adv-y="1000"  />

      
      <glyph glyph-name="uni0445" unicode="&#x0445;" d="M363 195C363 140 399 92 468 0L609 0L609 38L449 252L609 466L609 504L468 504C399 412 363 364 363 309L291 309C291 364 255 412 186 504L45 504L45 466L205 252L45 38L45 0L186 0C255 92 291 140 291 195Z"  horiz-adv-x="654" vert-adv-y="1000"  />

      
      <glyph glyph-name="uni0446" unicode="&#x0446;" d="M498 64L548 52L510-102L510-144L637-144C637-123 637-102 688 102C628 117 612 121 612 191L612 504L480 504L480 138L352 106C216 106 216 106 216 245L216 504L84 504L84 225C84 126 84-12 285-12C396-12 462 37 498 64Z"  horiz-adv-x="724" vert-adv-y="1000"  />

      
      <glyph glyph-name="uni0447" unicode="&#x0447;" d="M63 504L63 336C63 264 63 147 258 147C297 147 363 156 435 177L435 0L567 0L567 504L435 504L435 270L363 252L309 252C201 252 201 252 201 336L201 504Z"  horiz-adv-x="657" vert-adv-y="1000"  />

      
      <glyph glyph-name="uni0448" unicode="&#x0448;" d="M84 189C84 126 84-12 270-12C360-12 425 34 465 64C486 34 522-12 624-12C711-12 775 34 815 64L874-14L972 59C936 107 936 107 936 192L936 504L804 504L804 138L676 106C576 106 576 106 576 203L576 504L444 504L444 138L316 106C216 106 216 106 216 203L216 504L84 504Z"  horiz-adv-x="1026" vert-adv-y="1000"  />

      
      <glyph glyph-name="uni0449" unicode="&#x0449;" d="M84 189C84 126 84-12 270-12C360-12 425 34 465 64C486 34 522-12 624-12C718-12 782 34 822 64L872 52L834-102L834-144L961-144C961-123 961-102 1012 102C952 117 936 121 936 191L936 504L804 504L804 138L676 106C576 106 576 106 576 203L576 504L444 504L444 138L316 106C216 106 216 106 216 203L216 504L84 504Z"  horiz-adv-x="1048" vert-adv-y="1000"  />

      
      <glyph glyph-name="uni044A" unicode="&#x044A;" d="M18 402L114 402L114 0L345 0C456 0 594 0 594 174C594 228 594 360 381 360C351 360 306 357 246 342L246 504L18 504ZM351 252C456 252 456 252 456 174C456 96 456 96 351 96L246 96L246 252Z"  horiz-adv-x="642" vert-adv-y="1000"  />

      
      <glyph glyph-name="uni044B" unicode="&#x044B;" d="M666 504L666 0L798 0L798 504ZM90 0L321 0C432 0 570 0 570 174C570 228 570 360 357 360C327 360 282 357 222 342L222 504L90 504ZM327 252C432 252 432 252 432 174C432 96 432 96 327 96L222 96L222 252Z"  horiz-adv-x="888" vert-adv-y="1000"  />

      
      <glyph glyph-name="uni044C" unicode="&#x044C;" d="M345 0C453 0 591 0 591 174C591 228 591 360 366 360C330 360 282 357 222 342L222 504L90 504L90 0ZM351 252C453 252 453 252 453 174C453 96 453 96 351 96L222 96L222 252Z"  horiz-adv-x="639" vert-adv-y="1000"  />

      
      <glyph glyph-name="uni044D" unicode="&#x044D;" d="M543 276C543 366 543 516 288 516L279 516C243 516 153 516 57 492L57 384L84 384L180 408L282 408C405 408 405 408 405 297L180 297L180 207L405 207C405 96 405 96 282 96L180 96L84 120L57 120L57 12C153-12 243-12 279-12L288-12C543-12 543 138 543 228Z"  horiz-adv-x="609" vert-adv-y="1000"  />

      
      <glyph glyph-name="uni044E" unicode="&#x044E;" d="M90 504L90 0L222 0L222 201L363 201C363 135 363-12 609-12L657-12C906-12 906 138 906 228L906 276C906 366 906 516 657 516L609 516C363 516 363 369 363 303L222 303L222 504ZM498 252C498 402 498 402 633 402C768 402 768 402 768 252C768 102 768 102 633 102C498 102 498 102 498 252Z"  horiz-adv-x="972" vert-adv-y="1000"  />

      
      <glyph glyph-name="uni044F" unicode="&#x044F;" d="M573 0L573 504L339 504C204 504 60 504 60 342C60 255 89 233 171 172L70 38L70 0L211 0C245 44 276 84 276 156L441 156L441 0ZM303 252C204 252 204 252 204 330C204 408 204 408 303 408L441 408L441 252Z"  horiz-adv-x="663" vert-adv-y="1000"  />

      
      <glyph glyph-name="uni0451" unicode="&#x0451;" d="M204 207L327 207C471 207 501 207 552 219L588 228L588 277C588 360 588 516 351 516L303 516C66 516 66 360 66 276L66 228C66 138 66-12 327-12C366-12 456-12 552 12L552 120L525 120L429 96L327 96C204 96 204 96 204 207ZM204 291C204 411 204 411 327 411C450 411 450 411 450 291ZM177 726C111 726 111 687 111 663L111 645C111 621 111 582 177 582L210 582C276 582 276 621 276 645L276 663C276 687 276 726 210 726ZM444 726C378 726 378 687 378 663L378 645C378 621 378 582 444 582L477 582C543 582 543 621 543 645L543 663C543 687 543 726 477 726Z"  horiz-adv-x="651" vert-adv-y="1000"  />

      
      <glyph glyph-name="uni0452" unicode="&#x0452;" d="M15 540L96 540L96 0L228 0L228 339L356 371C492 371 492 371 492 232L492 37C491-56 486-60 404-123L474-216C624-103 624-66 624 90L624 258C624 336 624 486 426 486C363 486 284 465 228 423L228 540L414 540L414 618L228 618L228 732L192 732L96 708L96 618L15 618Z"  horiz-adv-x="708" vert-adv-y="1000"  />

      
      <glyph glyph-name="uni0453" unicode="&#x0453;" d="M130 570L190 570C278 570 338 615 466 711L466 750L326 750L130 603ZM229 286C155 267 55 244 55 141C55 90 55-12 282-12C348-12 408-12 504 12L504 120L477 120L381 96L258 96C196 96 195 96 195 141C195 175 195 176 245 189L359 218C433 237 533 260 533 363C533 414 533 516 306 516C240 516 180 516 84 492L84 384L111 384L207 408L330 408C392 408 393 408 393 363C393 329 393 328 343 315Z"  horiz-adv-x="588" vert-adv-y="1000"  />

      
      <glyph glyph-name="uni0454" unicode="&#x0454;" d="M372 297L204 297C204 408 204 408 327 408C433 408 433 408 458 309L576 339C576 387 576 516 351 516L303 516C66 516 66 366 66 276L66 228C66 138 66-12 327-12C363-12 456-12 552 12L552 120L525 120L429 96L327 96C204 96 204 96 204 207L372 207Z"  horiz-adv-x="621" vert-adv-y="1000"  />

      
      <glyph glyph-name="uni0455" unicode="&#x0455;" d="M351 179C402 166 402 166 402 141C402 96 402 96 333 96L207 96L111 120L84 120L84 13C180-11 240-12 288-12C531-12 531 97 531 148C531 253 431 276 359 294L237 325C186 338 186 338 186 363C186 408 186 408 255 408L381 408L477 384L504 384L504 492C408 516 348 516 300 516C57 516 57 408 57 357C57 252 157 228 229 210Z"  horiz-adv-x="588" vert-adv-y="1000"  />

      
      <glyph glyph-name="uni0456" unicode="&#x0456;" d="M90 480L90 0L222 0L222 504L186 504ZM135 726C69 726 69 687 69 663L69 645C69 621 69 582 135 582L177 582C243 582 243 621 243 645L243 663C243 687 243 726 177 726Z"  horiz-adv-x="312" vert-adv-y="1000"  />

      
      </font>
</defs>
</svg>
